<?xml version="1.0" encoding="utf-8"?>
<!-- Generator: Adobe Illustrator 21.0.0, SVG Export Plug-In . SVG Version: 6.00 Build 0)  -->
<svg version="1.1" id="Layer_1" xmlns="http://www.w3.org/2000/svg" xmlns:xlink="http://www.w3.org/1999/xlink" x="0px" y="0px"
	 viewBox="0 0 96.6 95.4" style="enable-background:new 0 0 96.6 95.4;" xml:space="preserve">
<style type="text/css">
	.st0{display:none;}
	.st1{display:inline;fill:#EFA716;}
	.st2{fill:#DAA429;}
	.st3{fill:#2AAAE1;}
	.st4{fill:#AA811D;}
	.st5{fill:#FFFFFF;}
	.st6{fill:#2F3945;}
</style>
<g id="Layer_2" class="st0">
	<rect x="-19" y="-24" class="st1" width="161" height="149"/>
</g>
<path class="st2" d="M37.8,31.6L48,14.4l10.2,17.2l0.4,0.8c1.7-0.7,3.4-1.6,5.1-2.5L48.8,4.3h-1.5L31.5,31c1.6,0.9,3.3,1.8,5.2,2.4
	L37.8,31.6z"/>
<path class="st3" d="M63.7,29.9c-1.7,1-3.4,1.8-5.1,2.5c-2.7,1.1-5.5,1.9-8.2,2.4c-4.9,0.8-9.7,0.1-13.7-1.3
	c-1.9-0.7-3.7-1.5-5.2-2.4c-6.9-4.2-9.8-10.6-4-13.5c-7.5,1.3-8.8,7.1-6.6,11.5c1.6,3.4,4.3,5.7,7.5,7.3c1.7,0.8,3.6,1.5,5.5,1.9
	c7,1.5,15,0.6,20.5-1.4c1.8-0.7,3.6-1.4,5.4-2.3c1.7-0.9,3.3-1.8,4.9-3c4.6-3.3,8.9-7.8,12.7-14.1C74.1,22.3,69.2,26.7,63.7,29.9"/>
<path class="st2" d="M76.6,51.9l-9.2-15.8c-1.2,1.4-2.5,2.7-3.9,3.9c-0.1,0.1-0.2,0.2-0.3,0.3l7,11.6H76.6z"/>
<path class="st2" d="M19.2,51.9h6.7l2.4-4c-1.9-0.6-3.6-1.5-5.2-2.5L19.2,51.9z"/>
<path class="st4" d="M67.4,36.1L66.2,34c-1.3,1.6-2.7,3-4.2,4.2l2.4,3.9C64.5,42.1,67.4,36.1,67.4,36.1"/>
<path class="st4" d="M24.2,43.4l-1.2,2l4.4,3.8l2-3.4C27.5,45.3,25.7,44.5,24.2,43.4"/>
<path class="st3" d="M65.3,32.4c-1.5,1.2-3.1,2.4-4.7,3.4c-9.2,5.7-19.9,7.7-29,6.4c-2-0.3-4-0.8-5.9-1.4c-2.4-0.8-4.6-1.8-6.6-3.1
	c1.2,2.4,3,4.3,5,5.7c1.6,1.1,3.3,1.9,5.2,2.5c6.7,2.1,15,1.3,21.7-1.2c4-1.4,7.6-3.6,10.9-6.4c1.5-1.3,2.8-2.7,4.2-4.2
	c2-2.3,3.8-5,5.5-8C69.7,28.4,67.5,30.6,65.3,32.4"/>
<path class="st5" d="M2.6,90.8c-0.1,0-0.2,0.1-0.2,0.2H2.2l-0.1-1h0.2c0.2,0.5,0.7,1,1.4,1s1-0.4,1-0.9c0-0.7-0.7-1-1.2-1.2
	c-0.7-0.3-1.3-0.8-1.3-1.5c0-0.6,0.5-1.2,1.4-1.2c0.5,0,0.7,0.2,0.9,0.2c0.1,0,0.2,0,0.2-0.1h0.2v1H4.7c-0.3-0.6-0.7-0.9-1.2-0.9
	s-0.9,0.3-0.9,0.8s0.3,0.9,1,1.1c0.7,0.3,1.6,0.6,1.6,1.6c0,0.9-0.7,1.3-1.4,1.3C3.2,91.1,2.8,90.8,2.6,90.8"/>
<path class="st5" d="M11.6,86.4c-0.4,0-0.5,0.1-0.5,0.3v3.7c0,0.4,0.1,0.4,0.5,0.5V91c-0.5,0-0.9,0-1.1,0c0-0.1,0-0.3,0-0.5v-0.4
	C10.3,90.7,9.7,91,9.1,91c-0.8,0-1.6-0.5-1.6-1.6v-2.8c0-0.2-0.1-0.3-0.5-0.3v-0.1c0.5,0,1.1,0,1.7,0v0.1c-0.4,0-0.6,0.1-0.6,0.3
	v2.7c0,1,0.5,1.4,1.1,1.4c0.7,0,1.3-0.6,1.3-1.4v-2.7c0-0.2-0.1-0.3-0.5-0.3v-0.1c0.5,0,1.1,0,1.6,0C11.6,86.2,11.6,86.4,11.6,86.4z
	"/>
<path class="st5" d="M13.4,90.9c0.5-0.1,0.7-0.1,0.7-0.4v-3.6c0-0.3-0.2-0.4-0.6-0.5v-0.1c0.4,0,0.8,0,1.2,0l2.4,3.6v-3
	c0-0.3-0.2-0.4-0.7-0.4v-0.1c0.6,0,1.1,0,1.6,0v0.1c-0.5,0.1-0.7,0.1-0.7,0.4V91h-0.1l-2.8-4.3v3.7c0,0.3,0.2,0.4,0.7,0.4V91
	c-0.5,0-1,0-1.5,0v-0.1H13.4z"/>
<path class="st5" d="M19.7,90.9c0.5-0.1,0.7-0.1,0.7-0.4v-3.6c0-0.3-0.2-0.4-0.6-0.5v-0.1c0.4,0,0.8,0,1.2,0l2.4,3.6v-3
	c0-0.3-0.2-0.4-0.7-0.4v-0.1c0.6,0,1.1,0,1.6,0v0.1c-0.5,0.1-0.7,0.1-0.7,0.4V91h-0.1l-2.8-4.3v3.7c0,0.3,0.2,0.4,0.7,0.4V91
	c-0.5,0-1,0-1.5,0v-0.1H19.7z"/>
<path class="st5" d="M28.8,86.2c0.5,0,1,0,1.5,0v0.1c-0.5,0-0.7,0.2-0.8,0.4l-1.1,2.1v1.5c0,0.3,0.1,0.4,0.5,0.4V91
	c-0.5,0-1.1,0-1.6,0v-0.1c0.4,0,0.5-0.1,0.5-0.4V89l-1.2-2.2c-0.1-0.2-0.3-0.4-0.7-0.4v-0.1c0.6,0,1.1,0,1.6,0v0.1
	c-0.4,0-0.5,0.2-0.3,0.4l1.1,2l1-1.9c0.1-0.2,0-0.4-0.5-0.4V86.2z"/>
<path class="st5" d="M35.3,91L35.3,91c0.4-0.1,0.5-0.2,0.5-0.6V87c0-0.3-0.1-0.6-0.5-0.6v-0.1c0.6,0,1.2,0,1.5,0
	c1.6,0,1.9,0.6,1.9,1.1c0,0.4-0.2,0.8-0.9,1c0.9,0.1,1.4,0.6,1.4,1.4s-0.6,1.3-1.9,1.3h-2V91z M36.4,88.5c1.4-0.2,1.7-0.5,1.7-1.1
	s-0.3-1-1.2-1c-0.3,0-0.4,0-0.5,0.1V88.5z M37.3,90.8c1,0,1.3-0.5,1.3-1.1c0-0.7-0.4-1.2-1.2-1.2l-1,0.2v1.7c0,0.4,0.1,0.4,0.7,0.4
	H37.3z"/>
<path class="st5" d="M44.5,89.9c-0.1,0.4-0.2,0.8-0.2,1.1H41v-0.1c0.4,0,0.5-0.1,0.5-0.5v-3.5c0-0.4-0.1-0.4-0.5-0.5v-0.1h3.1
	c0.1,0,0.1,0,0.1,0.1l0.1,0.8h-0.1c-0.2-0.5-0.4-0.7-1-0.7h-0.6c-0.3,0-0.4,0.1-0.4,0.4v1.7h1c0.4,0,0.5-0.2,0.6-0.5h0.1
	c0,0.4,0,0.8,0,1.2h-0.1c-0.1-0.3-0.2-0.5-0.6-0.5h-1v1.7c0,0.4,0.2,0.5,0.4,0.5h0.3c0.8,0,1.1-0.1,1.5-0.9h0.1V89.9z"/>
<path class="st5" d="M50.2,90.4c0.1,0.3,0.1,0.4,0.7,0.5V91c-0.5,0-1.1,0-1.6,0v-0.1c0.6-0.1,0.4-0.2,0.3-0.6l-0.3-0.8h-1.8
	l-0.3,0.9c-0.1,0.4,0.1,0.4,0.5,0.5V91c-0.4,0-1,0-1.5,0v-0.1c0.5-0.1,0.6-0.2,0.8-0.6l1.4-4.1h0.3L50.2,90.4z M47.5,89.3h1.7
	l-0.9-2.4L47.5,89.3z"/>
<path class="st5" d="M52.4,88.6c0-1.4,0.8-2.5,2.1-2.5c0.5,0,0.7,0.1,1.2,0.1c0.1,0,0.2,0,0.2,0c0.1,0.4,0.2,0.8,0.4,1.3H56
	c-0.3-0.8-0.9-1.2-1.6-1.2c-0.7,0-1.4,0.5-1.4,2.1s0.7,2.5,1.7,2.5c0.7,0,1.2-0.4,1.4-1.2h0.2c-0.2,0.7-0.7,1.4-1.8,1.4
	C53.3,91.1,52.4,90.1,52.4,88.6"/>
<path class="st5" d="M62.7,86.4c-0.4,0-0.5,0.1-0.5,0.5v3.5c0,0.4,0.1,0.4,0.5,0.5V91c-0.5,0-1.1,0-1.7,0v-0.1
	c0.4,0,0.5-0.1,0.5-0.5v-1.7h-2.2v1.7c0,0.4,0.1,0.4,0.5,0.5V91c-0.5,0-1.1,0-1.6,0v-0.1c0.4,0,0.5-0.1,0.5-0.5v-3.5
	c0-0.4-0.1-0.4-0.5-0.5v-0.1c0.5,0,1.1,0,1.6,0v0.1c-0.4,0-0.5,0.1-0.5,0.5v1.7h2.2v-1.7c0-0.4-0.1-0.4-0.5-0.5v-0.1
	C61.5,86.3,62.1,86.3,62.7,86.4L62.7,86.4z"/>
<path class="st5" d="M72.2,86.4c-0.4,0-0.5,0.1-0.5,0.5v3.5c0,0.4,0.1,0.4,0.5,0.5V91c-0.5,0-1.1,0-1.7,0v-0.1
	c0.4,0,0.5-0.1,0.5-0.5v-1.7h-2.2v1.7c0,0.4,0.1,0.4,0.5,0.5V91c-0.5,0-1.1,0-1.6,0v-0.1c0.4,0,0.5-0.1,0.5-0.5v-3.5
	c0-0.4-0.1-0.4-0.5-0.5v-0.1c0.5,0,1.1,0,1.6,0v0.1c-0.4,0-0.5,0.1-0.5,0.5v1.7H71v-1.7c0-0.4-0.1-0.4-0.5-0.5v-0.1
	C71,86.3,71.6,86.3,72.2,86.4L72.2,86.4z"/>
<path class="st5" d="M74,88.6c0-1.4,0.8-2.5,2.1-2.5c1.3,0,2.1,1.1,2.1,2.5s-0.8,2.5-2.1,2.5C74.9,91.1,74,90,74,88.6 M77.7,88.9
	c0-1.6-0.7-2.6-1.6-2.6c-0.6,0-1.4,0.4-1.4,2s0.7,2.6,1.6,2.6C76.9,90.9,77.7,90.5,77.7,88.9"/>
<path class="st5" d="M83,86.2c0.5,0,0.7,0,0.8-0.1l-0.3,1h-0.1C83.5,86.6,83.5,86.3,83,86.2l-0.7,0.1v4c0,0.4,0.2,0.4,0.7,0.5V91
	c-0.7,0-1.3,0-1.9,0v-0.1c0.5,0,0.7-0.1,0.7-0.5v-4h-0.6c-0.4,0-0.5,0.1-0.8,0.8h-0.1l0.3-1c0.2,0,0.3,0.1,0.8,0.1H83V86.2z"/>
<path class="st5" d="M89.1,89.9C89,90.3,89,90.7,88.9,91h-3.2v-0.1c0.4,0,0.5-0.1,0.5-0.5v-3.5c0-0.4-0.1-0.4-0.5-0.5v-0.1h3.1
	c0.1,0,0.1,0,0.1,0.1l0.1,0.8h-0.1c-0.2-0.5-0.4-0.7-1-0.7h-0.6c-0.3,0-0.4,0.1-0.4,0.4v1.7h1c0.4,0,0.5-0.2,0.6-0.5h0.1
	c0,0.4,0,0.8,0,1.2h-0.1c-0.1-0.3-0.2-0.5-0.6-0.5h-1v1.7c0,0.4,0.2,0.5,0.4,0.5h0.3c0.8,0,1.1-0.1,1.5-0.9h0V89.9z"/>
<path class="st5" d="M91,90.9c0.4,0,0.5-0.1,0.5-0.5v-3.5c0-0.4-0.1-0.4-0.5-0.5v-0.1c0.5,0,1.1,0,1.6,0v0.1c-0.4,0-0.5,0.1-0.5,0.5
	v3.5c0,0.4,0.2,0.5,0.4,0.5h0.2c0.9,0,1.1-0.1,1.5-0.9h0.1c-0.1,0.4-0.2,0.8-0.2,1.1H91V90.9z"/>
<path class="st6" d="M27.4,76.8c0.4,1.1,0.6,1.5,2.1,1.7V79c-1.8,0-3.7,0-5.5,0v-0.5c1.6-0.1,1.5-0.5,1.1-1.7l-0.8-2.2h-5.1L18.4,77
	c-0.4,1,0.3,1.3,1.6,1.4V79c-1.4,0-3.3,0-4.7,0v-0.5c1.4-0.1,1.9-0.6,2.4-1.8L21.8,65H23L27.4,76.8z M19.4,73.9H24l-2.4-6.6
	L19.4,73.9z"/>
<path class="st6" d="M34.8,78.4c1.2-0.1,1.6-0.3,1.6-1.4V66.9c0-1-0.4-1.2-1.6-1.4V65c1.8,0.1,3.6,0.1,5.4,0v0.5
	c-1.2,0.1-1.6,0.3-1.6,1.4v10.2c0,1,0.4,1.3,1.1,1.3h0.7c2.3,0,2.9-0.4,4.3-2.9h0.5c-0.4,1.3-0.6,2.4-0.7,3.5c-3.3,0-6.3,0-9.6,0
	v-0.6H34.8z"/>
<path class="st6" d="M50.4,79v-0.5c1.2-0.1,1.6-0.3,1.6-1.4v-10c0-1-0.3-1.5-1.5-1.6V65c1.9,0.1,3.6,0,4.7,0c4.8,0,5.7,1.7,5.7,3.2
	c0,1.2-0.6,2.3-2.6,3c2.6,0.4,4,1.8,4,3.9c0,2.4-1.9,3.9-5.7,3.9H50.4z M54.1,71.6c3.6-0.5,4.6-1.4,4.6-3.2c0-1.7-0.8-2.7-3.3-2.7
	c-0.7,0-1,0.1-1.3,0.2V71.6z M56.5,78.3c2.6,0,3.6-1.4,3.6-3.2c0-2-1.2-3.4-3.4-3.4l-2.5,0.4V77c0,1.1,0.4,1.3,1.9,1.3
	C56.1,78.3,56.5,78.3,56.5,78.3z"/>
<path class="st6" d="M79.1,76.8c0.4,1.1,0.6,1.5,2.1,1.7V79c-1.8,0-3.7,0-5.5,0v-0.5c1.6-0.1,1.5-0.5,1.1-1.7L76,74.6h-5L70.2,77
	c-0.4,1.1,0.4,1.4,1.7,1.5V79c-1.4,0-3.3,0-4.7,0v-0.5c1.4-0.1,1.9-0.6,2.4-1.8L73.7,65H75L79.1,76.8z M71.2,73.9h4.6l-2.4-6.6
	L71.2,73.9z"/>
<g id="Layer_1_1_">
</g>
</svg>
