<?xml version="1.0" encoding="utf-8"?>
<!-- Generator: Adobe Illustrator 21.1.0, SVG Export Plug-In . SVG Version: 6.00 Build 0)  -->
<svg version="1.1" id="Layer_1" xmlns="http://www.w3.org/2000/svg" xmlns:xlink="http://www.w3.org/1999/xlink" x="0px" y="0px"
	 viewBox="0 0 453.5 255.1" style="enable-background:new 0 0 453.5 255.1;" xml:space="preserve">
<style type="text/css">
	.st0{fill:#007DD2;}
	.st1{fill:#187FC3;}
	.st2{fill:#91BD4B;}
</style>
<path id="Path_1139" class="st0" d="M333.4,165.9c-3.3,3.6-8,5.7-12.9,5.6c-11.7,0-20.1-9.3-20.1-21.2c0-12.1,8.6-20.9,20.1-20.9
	c5,0,9.7,2.1,12.9,5.8v-4.8h10v40.2h-10V165.9L333.4,165.9z M322.2,138.9c-6.4-0.1-11.7,4.9-11.9,11.4c-0.1,6.4,4.9,11.7,11.4,11.9
	c6.4,0.1,11.7-4.9,11.9-11.4c0-0.1,0-0.2,0-0.3C333.6,144.2,328.5,139,322.2,138.9z M217.6,193.6h-1.9v-16.1h1.9V193.6z
	 M194.4,171.6c-4.9,0.1-9.6-2.1-12.6-6v5h-10.2v-56.1h10.5V135c3-3.7,7.6-5.8,12.3-5.7c11.5,0,20.2,9.1,20.2,21.2
	S205.9,171.6,194.4,171.6z M192.8,139c-6.4-0.2-11.7,4.8-12,11.1c-0.2,6.4,4.8,11.7,11.1,12c6.4,0.2,11.7-4.8,12-11.1
	c0-0.1,0-0.3,0-0.4c0.2-6.1-4.5-11.2-10.6-11.5C193.2,139,193,138.9,192.8,139z M173.4,178.2h1.9v4h4.1v1.6h-4.1v6
	c0,1.4,0.5,2.3,1.9,2.3c0.7,0,1.5-0.3,2.1-0.7l0.8,1.5c-0.9,0.6-1.9,1-3,1c-2.5,0-3.6-1.6-3.6-4.2v-5.8h-2v-1.6h2.1V178.2
	L173.4,178.2z M162.8,193.9c-2.5,0.2-4.7-1.7-4.9-4.2c0-0.2,0-0.4,0-0.7v-6.8h1.9v6.8c-0.1,1.6,1.2,3,2.8,3.1c1.6,0.1,3-1.2,3.1-2.8
	c0-0.1,0-0.2,0-0.3v-6.8h1.9v6.8c0.2,2.5-1.6,4.6-4.1,4.8C163.3,193.9,163,193.9,162.8,193.9z M156.9,114.5h10.5v56.1h-10.5V114.5
	L156.9,114.5z M151,191.9c-1,1.2-2.5,1.9-4.1,1.9c-3.2,0-5.8-2.6-5.8-5.8c0-0.1,0-0.2,0-0.2c-0.1-3.1,2.3-5.8,5.4-5.9
	c0.1,0,0.2,0,0.4,0c1.6,0,3.1,0.7,4.1,2v-1.7h1.8v11.4H151V191.9L151,191.9z M147.1,183.7c-2.3-0.1-4.3,1.7-4.4,4.1
	c-0.1,2.3,1.7,4.3,4.1,4.4c2.3,0.1,4.3-1.7,4.4-4.1c0-0.1,0-0.1,0-0.2c0.1-2.2-1.6-4.1-3.8-4.2C147.3,183.7,147.2,183.7,147.1,183.7
	L147.1,183.7z M142.7,166c-3.3,3.6-8,5.7-12.9,5.6c-11.7,0-20.1-9.3-20.1-21.2c0-12.1,8.6-20.9,20.1-20.9c5,0,9.7,2.1,12.9,5.8v-4.8
	h10v40.2h-10V166L142.7,166z M131.5,138.9c-6.4,0.2-11.5,5.5-11.3,12c0.2,6.2,5.1,11.1,11.3,11.3c6.4-0.1,11.5-5.5,11.4-11.9
	C142.7,144,137.7,139,131.5,138.9z M112.6,183.9c1-1.3,2.5-2,4.1-2c3.3,0.1,5.9,2.9,5.7,6.2c-0.1,3.1-2.6,5.6-5.7,5.7
	c-1.6,0-3.1-0.7-4.1-2v1.7h-1.9v-16.1h1.9V183.9z M116.5,192.1c2.3-0.1,4.1-2.1,4-4.4c-0.1-2.2-1.8-3.9-4-4c-2.3,0.1-4.1,2.1-4,4.4
	C112.6,190.2,114.3,192,116.5,192.1z M132,181.9c2.9-0.1,5.4,2.2,5.5,5.1c0,0.2,0,0.4,0,0.7c0,0.3,0,0.7-0.1,1h-9.2
	c0.2,2.1,2.1,3.6,4.1,3.4c1.4,0,2.9-0.5,4.1-1.3l0.8,1.5c-1.4,1-3.1,1.6-4.9,1.6c-3.3,0.1-6.1-2.4-6.2-5.7c-0.1-3.3,2.4-6.1,5.7-6.2
	C131.8,181.9,131.9,181.9,132,181.9z M135.5,187c0-1.9-1.5-3.4-3.4-3.3c0,0-0.1,0-0.1,0c-1.9,0-3.5,1.4-3.8,3.3H135.5z M184.7,177.7
	c0.8,0,1.4,0.6,1.4,1.4c0,0.8-0.6,1.4-1.4,1.4c-0.8,0-1.4-0.6-1.4-1.4S183.9,177.7,184.7,177.7z M185.6,193.6h-1.9v-11.4h1.9V193.6z
	 M191.7,181.4c-0.2-2.1,1.4-4,3.6-4.2c0.2,0,0.4,0,0.7,0c0.9,0,1.7,0.2,2.5,0.6l-0.6,1.6c-0.5-0.2-1.1-0.4-1.7-0.4
	c-1.2-0.2-2.3,0.7-2.5,1.9c0,0.2,0,0.4,0,0.5v0.7h3.7v1.6h-3.7v9.8h-1.9v-9.8h-2v-1.6h2V181.4z M202.8,189c-0.1,1.6,1.2,3,2.8,3.1
	c1.6,0.1,3-1.2,3.1-2.8c0-0.1,0-0.2,0-0.3v-6.8h1.9v6.8c0,2.7-2.2,4.9-4.9,4.9c-2.7,0-4.9-2.2-4.9-4.9v-6.8h1.9V189z M237.7,129.4
	c11.5,0,20.3,7.5,20.3,20.2c0,1.5-0.1,3.1-0.4,4.6h-30.4c1.3,4.9,4.9,8.6,11.8,8.6c4.7-0.1,9.2-1.5,13.1-4.1l4.2,7.3
	c-5.2,3.6-11.4,5.5-17.7,5.5c-15.2,0-22-10.3-22-21c-0.5-11.2,8.3-20.6,19.5-21.1C236.6,129.3,237.2,129.3,237.7,129.4L237.7,129.4z
	 M247.8,146.4c-0.7-5-5.1-8.6-10.1-8.4c-5.1-0.2-9.5,3.4-10.5,8.4H247.8z M231.9,183.9c1-1.3,2.5-2,4.1-2c3.3,0.1,5.9,2.9,5.7,6.2
	c-0.1,3.1-2.6,5.6-5.7,5.7c-1.6,0-3.1-0.7-4.1-2v1.7H230v-16.1h1.9V183.9L231.9,183.9z M235.9,192.1c2.3,0.1,4.3-1.7,4.4-4
	c0.1-2.3-1.7-4.3-4-4.4c-2.3-0.1-4.3,1.7-4.4,4c0,0.1,0,0.1,0,0.2c-0.1,2.2,1.5,4.1,3.7,4.2C235.7,192.1,235.8,192.1,235.9,192.1z
	 M246.7,182.2l3.6,8.7l3.2-8.7h2.1l-4.8,12.8c-1,2.6-2.2,3.5-3.9,3.5c-0.6,0-1.2-0.1-1.8-0.4l0.2-1.7c0.4,0.2,0.9,0.3,1.4,0.3
	c0.9,0,1.7-0.5,2.3-2l0.5-1.1l-5-11.3L246.7,182.2L246.7,182.2z M270.3,136c2.7-4.4,7.6-6.9,12.7-6.7c8.2,0,15.8,5.4,15.8,16.7v24.6
	h-10.5v-21.8c0-6.5-3.5-10-8.5-10c-5.5,0-9.3,4.1-9.3,10.2v21.5H260v-40.2h10.3L270.3,136z M268.6,183.8c0.8-1.3,2.2-2,3.6-1.9
	c2.4-0.1,4.5,1.8,4.6,4.2c0,0.2,0,0.4,0,0.6v6.9h-1.9v-6.4c0-2.4-1.3-3.6-3-3.6c-1.8,0-3.3,1.5-3.3,3.3c0,0.1,0,0.2,0,0.3v6.4h-1.9
	v-11.4h1.9L268.6,183.8z M286.9,181.9c1.6,0,3.1,0.7,4.1,2v-1.7h1.8v11.4h-1.9v-1.6c-1,1.2-2.5,1.9-4.1,1.9c-3.2,0-5.8-2.6-5.8-5.8
	c0-0.1,0-0.2,0-0.2c-0.1-3.1,2.3-5.8,5.4-5.9C286.6,181.9,286.7,181.9,286.9,181.9L286.9,181.9z M287.1,192.1c2.3,0.1,4.3-1.7,4.5-4
	c0.1-2.3-1.7-4.3-4-4.5c-2.3-0.1-4.3,1.7-4.5,4c0,0.1,0,0.2,0,0.2c-0.1,2.2,1.6,4.1,3.8,4.2C286.9,192.1,287,192.1,287.1,192.1
	L287.1,192.1z M298.8,178.2h1.9v4h4.1v1.6h-4.1v6c0,1.4,0.5,2.3,1.9,2.3c0.7,0,1.5-0.3,2.1-0.7l0.7,1.5c-0.9,0.6-1.9,1-3,1
	c-2.5,0-3.6-1.6-3.6-4.2v-5.8h-2v-1.6h2.1L298.8,178.2L298.8,178.2z M310.8,189c-0.1,1.6,1.2,3,2.8,3.1s3-1.2,3.1-2.8
	c0-0.1,0-0.2,0-0.3v-6.8h1.9v6.8c0.1,2.7-2.1,4.9-4.8,5c-2.7,0.1-4.9-2.1-5-4.8c0-0.1,0-0.1,0-0.2v-6.8h1.9V189z M325.4,183.9
	c0.6-1.3,1.9-2.1,3.3-2c0.4,0,0.9,0.1,1.3,0.2l-0.2,1.9c-0.4-0.1-0.8-0.2-1.2-0.2c-1.7,0-3.2,1.1-3.2,3.7v6.1h-1.9v-11.4h1.8
	L325.4,183.9z M338.3,181.9c2.9-0.1,5.4,2.2,5.5,5.1c0,0.2,0,0.4,0,0.7c0,0.3,0,0.7-0.1,1h-9.2c0.2,2.1,2,3.6,4.1,3.4
	c1.4,0,2.9-0.5,4.1-1.3l0.8,1.5c-1.4,1-3.1,1.6-4.9,1.6c-3.3,0.1-6.1-2.4-6.2-5.7c-0.1-3.3,2.4-6.1,5.7-6.2
	C338.1,181.9,338.2,181.9,338.3,181.9L338.3,181.9z M341.8,187c0-1.9-1.5-3.4-3.4-3.3c0,0-0.1,0-0.1,0c-1.9,0-3.5,1.4-3.8,3.3H341.8
	z"/>
<path class="st1" d="M316.7,85.5c0.2,0.1,0.2,0.3,0.2,0.5l-0.5,5.2c0,0.2-0.1,0.3-0.3,0.4c-0.1,0-0.1,0-0.2,0c-0.1,0-0.2,0-0.3-0.1
	l-4.3-3c-0.2-0.1-0.2-0.3-0.2-0.5c0-0.2,0.1-0.3,0.3-0.4l4.8-2.2C316.3,85.4,316.5,85.4,316.7,85.5L316.7,85.5z M343.8,56.7v57.7
	h-58.1V56.7H343.8z M332.6,90.2c-0.7-1.2-1.7-2.2-3-2.8c-1.4-0.5-2.9-0.4-4.1,0.3c-1.4,0.8-2.3,2.3-2.5,3.9
	c-0.2,1.1-0.3,1.9-0.3,2.1c-0.1,1.3,0.6,2.4,1.8,2.8c0.9,0.3,1.8,0.1,2.5-0.4c0.7-0.4,1.2-1.2,1.3-2c0-0.4,0.3-0.6,0.7-0.6
	c0,0,0.1,0,0.1,0c0.4,0,0.7,0.4,0.6,0.8c-0.2,1.2-0.9,2.3-1.9,3c-0.8,0.5-1.6,0.7-2.5,0.7c-0.4,0-0.9-0.1-1.3-0.2
	c-1.8-0.6-2.9-2.4-2.8-4.3c0-0.1,0.1-0.5,0.2-1.6c0-0.2,0.1-0.4,0.1-0.6c0.2-1.1,0.4-2.6,0.6-4.8c0.4-3.2,0.9-6.8,1.2-8.9
	c0.3-3.5-1.5-6.9-4.6-8.6c-4-2.2-9-0.8-11.4,3c-0.8,1.2-1.1,2.6-0.9,4c0.2,1.4,1.1,2.7,2.4,3.4c1.4,0.8,3.1,0.8,4.6,0.2
	c1.1-0.4,1.8-0.8,1.9-0.8c1.1-0.5,1.8-1.8,1.6-3c-0.2-0.9-0.8-1.6-1.6-2c-0.7-0.4-1.6-0.4-2.4-0.1c-0.4,0.2-0.8,0-0.9-0.4
	c-0.2-0.4,0-0.8,0.4-0.9c1.2-0.5,2.5-0.4,3.6,0.2c1.2,0.6,2,1.7,2.3,3c0.3,1.9-0.6,3.7-2.3,4.5c-0.1,0-0.5,0.2-1.5,0.6l-0.5,0.2
	l-4.6,1.9c-3,1.2-6.4,2.6-8.3,3.5c-3.2,1.5-5.2,4.7-5.2,8.3c0.1,4.5,3.8,8.2,8.4,8.3c1.4,0,2.8-0.4,4-1.2c1.1-0.9,1.8-2.3,1.8-3.7
	c0-1.6-0.8-3.1-2.2-4c-0.9-0.7-1.6-1.2-1.7-1.3c-1-0.7-2.4-0.6-3.4,0.1c-0.7,0.6-1,1.5-1,2.4c0,0.8,0.4,1.6,1.1,2.1
	c0.3,0.2,0.4,0.7,0.1,1c-0.2,0.3-0.7,0.4-1,0.1c-1-0.7-1.6-1.9-1.7-3.2c0-1.3,0.5-2.6,1.4-3.5c1.5-1.2,3.5-1.3,5.1-0.3
	c0.1,0,0.4,0.3,1.3,1c0.2,0.1,0.3,0.2,0.4,0.3c0.9,0.7,2.1,1.6,3.9,3c2.6,2,5.5,4.2,7.2,5.5c2.9,2,6.8,2.1,9.8,0.3
	C333.4,99.2,334.8,94.2,332.6,90.2z"/>
<path class="st2" d="M269.5,89c1.6,2.9,0.6,6.5-2.2,8.2c-1.1,0.6-2.3,0.9-3.5,0.9c-1.3,0-2.6-0.4-3.6-1.2c-1.2-0.9-3.2-2.4-4.9-3.8
	l-1.6-1.2c-0.1-0.1-0.2-0.1-0.3-0.1c-0.2,0.1-0.3,0.3-0.3,0.5l0.3,1.3c0.1,0.3,0.1,0.5,0.1,0.8c0,1.1-0.5,2.1-1.3,2.8
	c-0.8,0.6-1.8,0.9-2.8,0.9h-0.1c-3.3-0.1-6-2.7-6.1-6c0-2.6,1.4-4.9,3.8-6c1.4-0.6,3.9-1.6,5.9-2.4l1.7-0.7c0.2-0.1,0.3-0.2,0.2-0.4
	c0-0.2-0.1-0.3-0.3-0.4l-1.3-0.4c-0.3-0.1-0.5-0.2-0.8-0.3c-0.9-0.5-1.6-1.4-1.8-2.5c-0.1-1,0.1-2.1,0.7-2.9c1.2-1.9,3.2-3,5.4-3
	c1,0,2,0.3,2.9,0.8c2.2,1.2,3.6,3.7,3.3,6.2c-0.2,1.4-0.5,3.9-0.8,6.2l-0.3,1.9c0,0.2,0.1,0.3,0.2,0.4c0.2,0.1,0.3,0,0.5-0.1l1-0.9
	c0.2-0.2,0.4-0.4,0.7-0.5c0.9-0.5,2.1-0.6,3.1-0.3C268.3,87.4,269,88.1,269.5,89L269.5,89z M285.8,56.8v57.6h-58.1V56.8H285.8z
	 M268,81.7l-0.4-0.1l0.1-0.4c1-4.7-1.2-9.4-5.3-11.8c-5.3-3-12.1-1.2-15.2,4c-1.3,2.3-1.8,5.1-1.3,7.7l0.1,0.4l-0.4,0.1
	c-4.5,1.5-7.6,5.7-7.6,10.5c0,2.7,1,5.2,2.8,7.2c4,4.6,11.1,5.1,15.7,1l0.3-0.3l0.3,0.3c3.6,3.2,8.8,3.7,12.9,1.3
	c2.4-1.3,4.1-3.5,5-6.1C276.9,89.8,273.8,83.6,268,81.7z"/>
</svg>
