<?xml version="1.0" encoding="utf-8"?>
<!-- Generator: Adobe Illustrator 21.1.0, SVG Export Plug-In . SVG Version: 6.00 Build 0)  -->
<svg version="1.1" id="Layer_1" xmlns="http://www.w3.org/2000/svg" xmlns:xlink="http://www.w3.org/1999/xlink" x="0px" y="0px"
	 viewBox="0 0 453.5 255.1" style="enable-background:new 0 0 453.5 255.1;" xml:space="preserve">
<style type="text/css">
	.st0{fill:#D3D3D3;}
	.st1{fill:#A8A8A8;}
	.st2{fill:#FD0100;}
</style>
<title>eltur-logo</title>
<path class="st0" d="M212.5,75.1c-8.6-10.1-19.7-15.2-33.1-15.2c-13.6,0-24.8,4.6-33.5,13.7s-13.1,20.9-13.1,35.2
	c0,11,3.2,20.3,9.7,27.8c6.5,7.5,14.5,11.3,24,11.3c3.6,0,8-0.9,13.2-2.8c4.7-1.6,9.2-3.9,13.3-6.7c0.8-0.6,1.7-1,2.7-1.2
	c1.5-0.1,2.3,0.9,2.3,2.9c-0.1,1.6-0.4,3.2-1,4.7l-1.9,5.7c-3.1,8.9-9.2,17.3-18.4,25.3s-18.6,13.1-28.3,15.3
	c-1.8,0.3-3.6,0.8-5.4,1.5c-0.5,0.3-0.8,0.9-0.9,2c-0.1,2,0.8,3,2.6,3c0.8,0,1.6-0.1,2.4-0.2l8.1-1.5c19.7-3.5,37.6-13.7,50.5-29
	c13.4-15.5,20.1-33.1,20.1-52.8C225.5,98.2,221.2,85.2,212.5,75.1z M137.8,114.2c-1.4-11.8,1.6-24.7,7.4-33.1
	c-4.4,10.2-5.8,21.4-4.2,32.3c1.1,7.4,3.6,13.6,7.6,18.9c2.8,3.7,6.3,6.8,10.1,9.3C151.4,139.3,140,132.6,137.8,114.2z M197.3,128.1
	c-4.5,5.2-10,7.8-16.7,7.8c-8.2,0-14.9-3.8-20-11.4c-5.2-7.6-7.7-17.4-7.7-29.4c0-8.5,1.9-15.4,5.8-20.8s8.9-8,15.1-8
	c8.1,0,15.1,4.2,21.2,12.7s9.1,18.4,9.1,29.8C204,116.4,201.7,122.9,197.3,128.1z M187.2,172.3c5.9-6.8,11.1-15.7,15-25.7
	c5.3-13.7,7.7-28.4,6.7-41.4c-0.8-11.3-4.5-26.3-16.9-36.2c10.7,4.5,17.7,15.3,20,31C215.5,123.6,206.8,155.8,187.2,172.3z"/>
<path class="st0" d="M309.4,121.3c-7.6-6.6-17.9-9.9-30.7-9.9c-4.3,0-8.6,0.4-12.8,1.2c-0.8,0.2-1.7,0.3-2.6,0.3
	c-2.1,0-3.2-1-3.2-3.1c0-1.7,0.1-3.3,0.4-5c0.5-2.9,0.9-6.1,1.3-9.6c0.8-6.3,3.4-9.5,7.9-9.5h37.4c2.7,0,4.3-0.3,4.8-1
	c0.5-0.7,1.5-3.5,2.9-8.5l1.7-6.1l2.2-7.9c0.4-1,0.6-2,0.6-3.1c0-1.1-0.6-1.6-1.7-1.6c-0.8,0-1.6,0.3-2.2,0.8l-4.1,4
	c-1.9,2-4.5,3.1-7.2,3h-40c-2.9,0-4.7,0.5-5.3,1.4c-0.6,1-1.3,4.6-2.2,11.1L255,92.1c-0.7,5.2-1.4,9.8-1.8,13.9
	c-1,8.1-1.8,13.3-2.2,15.4c-0.5,1.7-0.8,3.4-0.9,5.1c0,3.5,1.5,5.3,4.6,5.3c2-0.1,4.1-0.3,6.1-0.6c3.6-0.6,7.3-1,11-1.1
	c8.4,0,15.4,2.5,20.8,7.5c5.5,5,8.2,11.3,8.2,18.9c0,9.1-3.5,16.8-10.4,23.1c-6.9,6.3-15.4,9.4-25.3,9.4c-6,0-13.9-1.8-23.6-5.4
	c-0.6-0.2-1.2-0.4-1.8-0.4c-1.8,0-2.7,0.9-2.7,2.8c0,2.1,3.7,4.4,11.1,7c7.4,2.5,14.2,3.8,20.3,3.8c14.6,0,27-4.7,37.2-14.2
	c10.2-9.4,15.3-21,15.3-34.6C320.8,136.8,317,127.9,309.4,121.3z M268.7,70.8c3.3,0,8.5,0,13.6,0c3.4,0,6.9,0,9.7,0
	c1.5,0,2.9,0,4.4,0c6.1,0.1,11.1,0.1,14.6-1.9c-1.2,2.3-3.3,4.1-4.6,4.3c-5.1,0.7-15.2,0.7-25,0.6c-2.6,0-5.1,0-7.7,0
	c-1.9,0-3.8,0-5.7,0c-0.6,0.1-1.2-0.1-1.7-0.5c-0.2-0.3-0.4-0.6-0.4-1C266,71.9,266,70.8,268.7,70.8z M296.9,178.7
	c9.5-12.6,11.7-25.7,5.9-36.5c-3.3-6.3-9.1-11.2-16.6-14.2c-5.5-2.2-11.4-3.2-17.4-3.2c-0.7,0-1.4,0-2.1,0
	c19.6-5.4,34.1,3,40.2,14.6C312.7,150.6,311.5,166.4,296.9,178.7L296.9,178.7z"/>
<path class="st1" d="M195.6,78.5c-6.2-8.6-13.5-13-21.8-13c-6.5,0-11.8,2.8-15.8,8.4s-5.9,12.6-5.9,21.3c0,12.1,2.6,22.1,7.9,29.8
	s12.2,11.8,20.7,11.8c6.8,0,12.6-2.7,17.3-8.1s6.9-12,6.9-19.9C204.8,97.2,201.7,87.1,195.6,78.5z M180.6,135.1
	c-7.9,0-14.4-3.7-19.4-11c-5-7.3-7.6-17.2-7.6-28.9c0-8.3,1.9-15.1,5.6-20.3s8.5-7.7,14.5-7.7c7.7,0,14.6,4.2,20.5,12.3
	s8.9,18.1,8.9,29.3c0,7.5-2.2,13.8-6.5,18.8C192.3,132.6,187,135.1,180.6,135.1z M195.6,78.5c-6.2-8.6-13.5-13-21.8-13
	c-6.5,0-11.8,2.8-15.8,8.4s-5.9,12.6-5.9,21.3c0,12.1,2.6,22.1,7.9,29.8s12.2,11.8,20.7,11.8c6.8,0,12.6-2.7,17.3-8.1
	s6.9-12,6.9-19.9C204.8,97.2,201.7,87.1,195.6,78.5z M180.6,135.1c-7.9,0-14.4-3.7-19.4-11c-5-7.3-7.6-17.2-7.6-28.9
	c0-8.3,1.9-15.1,5.6-20.3s8.5-7.7,14.5-7.7c7.7,0,14.6,4.2,20.5,12.3s8.9,18.1,8.9,29.3c0,7.5-2.2,13.8-6.5,18.8
	C192.3,132.6,187,135.1,180.6,135.1z M213.1,74.5c-8.8-10.3-20.1-15.4-33.7-15.4c-13.8,0-25.2,4.7-34.1,14
	c-8.9,9.3-13.3,21.3-13.3,35.7c0,11.1,3.3,20.7,9.9,28.3s14.9,11.6,24.6,11.6c3.6,0,8.2-1,13.5-2.9c4.8-1.6,9.3-3.9,13.5-6.8
	c0.7-0.5,1.4-0.9,2.3-1.1c0.3,0,0.6,0.1,0.9,0.3c0.4,0.6,0.6,1.2,0.5,1.9c-0.1,1.5-0.4,3-1,4.4l-1.9,5.7c-3,8.7-9.1,17.1-18.1,25
	s-18.5,12.9-28,15.1c-4.2,0.9-5.2,1.3-5.6,1.5c-0.7,0.4-1.2,1.3-1.3,2.7c-0.1,1.1,0.2,2.1,0.9,2.9c0.7,0.6,1.6,1,2.5,0.9
	c0.8,0,1.7-0.1,2.5-0.2l8.1-1.5c19.9-3.5,37.9-13.9,50.9-29.2c13.5-15.6,20.3-33.6,20.3-53.4C226.3,98,221.9,84.8,213.1,74.5
	L213.1,74.5z M144.4,196.8c-0.5,0-1-0.1-1.3-0.4c-0.4-0.5-0.5-1.1-0.4-1.7c0.1-0.7,0.2-1.2,0.5-1.3c0.2-0.1,1.3-0.5,5.1-1.4
	c9.8-2.2,19.5-7.4,28.7-15.4s15.5-16.7,18.6-25.6l1.9-5.7c0.6-1.6,1-3.3,1.1-5c0.1-1.1-0.3-2.2-1-3.1c-0.5-0.5-1.2-0.8-1.9-0.7h-0.2
	c-1.1,0.2-2.2,0.7-3.1,1.4c-4,2.8-8.4,5-13.1,6.6c-5.1,1.8-9.5,2.8-12.9,2.8c-9.2,0-17.1-3.7-23.4-11c-6.3-7.3-9.5-16.5-9.5-27.3
	c0-14,4.3-25.6,12.9-34.6c8.6-8.9,19.6-13.5,32.9-13.5c13.1,0,24.1,5,32.5,14.9c8.4,9.9,12.8,22.9,12.8,38.4
	c0,19.4-6.7,37-19.9,52.3c-12.8,15.1-30.5,25.2-50,28.7l-8.1,1.5C145.9,196.7,145.2,196.8,144.4,196.8z M195.6,78.5
	c-6.2-8.6-13.5-13-21.8-13c-6.5,0-11.8,2.8-15.8,8.4s-5.9,12.6-5.9,21.3c0,12.1,2.6,22.1,7.9,29.8s12.2,11.8,20.7,11.8
	c6.8,0,12.6-2.7,17.3-8.1s6.9-12,6.9-19.9C204.8,97.2,201.7,87.1,195.6,78.5z M180.6,135.1c-7.9,0-14.4-3.7-19.4-11
	c-5-7.3-7.6-17.2-7.6-28.9c0-8.3,1.9-15.1,5.6-20.3s8.5-7.7,14.5-7.7c7.7,0,14.6,4.2,20.5,12.3s8.9,18.1,8.9,29.3
	c0,7.5-2.2,13.8-6.5,18.8C192.3,132.6,187,135.1,180.6,135.1z M195.6,78.5c-6.2-8.6-13.5-13-21.8-13c-6.5,0-11.8,2.8-15.8,8.4
	s-5.9,12.6-5.9,21.3c0,12.1,2.6,22.1,7.9,29.8s12.2,11.8,20.7,11.8c6.8,0,12.6-2.7,17.3-8.1s6.9-12,6.9-19.9
	C204.8,97.2,201.7,87.1,195.6,78.5z M180.6,135.1c-7.9,0-14.4-3.7-19.4-11c-5-7.3-7.6-17.2-7.6-28.9c0-8.3,1.9-15.1,5.6-20.3
	s8.5-7.7,14.5-7.7c7.7,0,14.6,4.2,20.5,12.3s8.9,18.1,8.9,29.3c0,7.5-2.2,13.8-6.5,18.8C192.3,132.6,187,135.1,180.6,135.1z
	 M195.6,78.5c-6.2-8.6-13.5-13-21.8-13c-6.5,0-11.8,2.8-15.8,8.4s-5.9,12.6-5.9,21.3c0,12.1,2.6,22.1,7.9,29.8s12.2,11.8,20.7,11.8
	c6.8,0,12.6-2.7,17.3-8.1s6.9-12,6.9-19.9C204.8,97.2,201.7,87.1,195.6,78.5z M180.6,135.1c-7.9,0-14.4-3.7-19.4-11
	c-5-7.3-7.6-17.2-7.6-28.9c0-8.3,1.9-15.1,5.6-20.3s8.5-7.7,14.5-7.7c7.7,0,14.6,4.2,20.5,12.3s8.9,18.1,8.9,29.3
	c0,7.5-2.2,13.8-6.5,18.8C192.3,132.6,187,135.1,180.6,135.1z"/>
<path class="st1" d="M309.9,120.7c-7.7-6.7-18.2-10.1-31.3-10.1c-4.3,0-8.7,0.4-12.9,1.1c-0.8,0.2-1.6,0.3-2.4,0.3
	c-1.7,0-2.4-0.7-2.4-2.3c0-1.6,0.1-3.2,0.4-4.8c0.5-2.9,0.9-6.1,1.3-9.6c0.7-5.9,3.1-8.8,7.1-8.8h37.4c3,0,4.7-0.4,5.4-1.3
	c0.4-0.5,1.2-2,3.1-8.8l1.7-6.1l2.2-7.9c0.4-1.1,0.6-2.2,0.7-3.3c0.1-1.3-0.9-2.4-2.1-2.4c-0.1,0-0.3,0-0.4,0c-1,0-2,0.4-2.7,1.1
	l-4.1,4c-1.7,1.8-4.1,2.9-6.6,2.8h-40c-3.3,0-5.2,0.6-6,1.8c-0.4,0.7-1.1,2.6-2.3,11.4L254.3,92c-0.7,5.1-1.4,9.8-1.8,13.8
	c-1,8.1-1.8,13.2-2.2,15.3c-0.5,1.7-0.8,3.5-0.9,5.3c0,5.1,2.9,6.1,5.4,6.1c2.1-0.1,4.2-0.3,6.2-0.6c3.6-0.6,7.2-1,10.9-1.1
	c8.2,0,15,2.4,20.3,7.3c5.2,4.6,8.1,11.3,7.9,18.3c0,8.9-3.4,16.4-10.1,22.5c-6.7,6.1-15.1,9.2-24.8,9.2c-5.9,0-13.7-1.8-23.4-5.4
	c-0.7-0.3-1.4-0.4-2.1-0.5c-2.2,0-3.5,1.3-3.5,3.6c0,2.6,3.7,5,11.7,7.7c7.5,2.5,14.4,3.8,20.6,3.8c14.8,0,27.4-4.8,37.7-14.4
	c10.3-9.6,15.5-21.4,15.5-35.1C321.6,136.6,317.7,127.4,309.9,120.7z M268.4,195.9c-6,0-12.8-1.3-20.1-3.7
	c-9.6-3.2-10.6-5.4-10.6-6.2c0-1.4,0.5-2,1.9-2c0.5,0,1.1,0.2,1.6,0.4c9.8,3.6,17.8,5.5,23.9,5.5c10.1,0,18.8-3.2,25.8-9.6
	c7-6.4,10.6-14.4,10.6-23.7c0-7.8-2.9-14.4-8.5-19.5c-5.6-5.1-12.8-7.7-21.4-7.7c-3.7,0.1-7.4,0.5-11.1,1.1c-2,0.3-4,0.5-6,0.6
	c-1.7,0-3.7-0.5-3.7-4.5c0.1-1.7,0.4-3.3,0.9-4.9c0.5-2.1,1.2-7.4,2.3-15.4c0.5-4,1.1-8.7,1.8-13.8l2-14.2
	c1.1-8.2,1.8-10.3,2.1-10.8c0.2-0.3,1-1.1,4.6-1.1h40c2.9,0,5.7-1.2,7.7-3.3l4.1-4c0.4-0.4,1-0.6,1.6-0.6c0.8,0,0.9,0.3,0.9,0.8
	c0,1-0.2,1.9-0.6,2.8l-2.3,7.9l-1.7,6.1c-1.9,6.6-2.6,7.9-2.8,8.2c-0.2,0.3-0.8,0.7-4.2,0.7h-37.4c-4.9,0-7.8,3.4-8.7,10.2
	c-0.4,3.5-0.9,6.7-1.3,9.6c-0.3,1.7-0.4,3.4-0.4,5.1c0,2.5,1.4,3.9,4,3.9c0.9,0,1.8-0.1,2.7-0.3c4.2-0.7,8.4-1.1,12.6-1.1
	c12.6,0,22.8,3.3,30.2,9.7s11.1,15.2,11.1,26c0,13.3-5.1,24.7-15,33.9C295,191.1,282.7,195.9,268.4,195.9z"/>
<path class="st1" d="M142.6,113.2c-1.8-12.6,0.4-25,6.6-36.8l-1.2-1c-8.6,7.9-13.5,24.3-11.8,39c2.9,24.6,21.6,29.3,27.3,30.1
	l0.5-1.5C151.4,136.2,144.6,126.7,142.6,113.2z M137.8,114.2c-1.4-11.8,1.6-24.7,7.4-33.1c-4.4,10.2-5.8,21.4-4.2,32.3
	c1.1,7.4,3.6,13.6,7.6,18.9c2.8,3.7,6.3,6.8,10.1,9.3C151.4,139.3,140,132.6,137.8,114.2z"/>
<path class="st1" d="M213.6,99.8c-1.3-8.7-4.1-16.2-8.2-21.9c-4.3-6.1-10.7-10.4-17.9-12l-0.6,1.5c15.3,9.4,19.6,25.8,20.5,38
	c1.9,26.5-10,57.5-27.8,72.3l0.9,1.3c11.6-6.5,21.3-18.7,27.5-34.3C213.6,130.1,215.7,113.8,213.6,99.8z M187.1,172.3
	c5.9-6.8,11.1-15.7,15-25.7c5.3-13.7,7.7-28.4,6.7-41.4C208,93.9,204.4,78.9,192,69c10.7,4.5,17.8,15.3,20.1,31
	C215.5,123.6,206.8,155.8,187.1,172.3L187.1,172.3z"/>
<path class="st1" d="M308.4,138.8c-3.9-7.4-10.6-12.9-18.5-15.3c-9.1-2.9-19.5-2.1-30.1,2.2l0.4,1.5c18.4-2.9,34.6,3.3,41.2,15.8
	c6.2,11.7,2.6,26.2-9.9,39.9l1,1.2C312.8,170.7,315.2,151.7,308.4,138.8z M296.9,178.7c9.5-12.6,11.7-25.7,5.9-36.5
	c-3.3-6.3-9.1-11.2-16.6-14.2c-5.5-2.2-11.4-3.2-17.4-3.2c-0.7,0-1.4,0-2.1,0c19.6-5.4,34.1,3,40.2,14.6
	C312.7,150.6,311.5,166.4,296.9,178.7L296.9,178.7z"/>
<path class="st1" d="M312,66c-2.8,3.4-8.5,3.3-15.6,3.2c-1.4,0-2.9,0-4.4,0c-2.8,0-6.3,0-9.7,0c-5,0-10.2,0-13.6,0
	c-1.8,0-2.9,0.5-3.5,1.1c-0.6,0.5-0.9,1.3-0.8,2.1c0,0.8,0.3,1.6,0.8,2.1c0.8,0.7,1.8,1,2.9,1c4.1-0.1,8.8,0,13.3,0
	c2.5,0,5.1,0,7.6,0c7.1,0,13.7-0.1,17.6-0.7c2.6-0.4,6.2-4.2,6.9-8.2L312,66z M306.3,73.2c-5.1,0.7-15.2,0.7-25,0.6
	c-2.6,0-5.1,0-7.7,0c-1.9,0-3.8,0-5.7,0c-0.6,0.1-1.2-0.1-1.7-0.5c-0.2-0.3-0.4-0.6-0.4-1c0-0.4,0-1.5,2.8-1.5c3.3,0,8.5,0,13.6,0
	c3.4,0,6.9,0,9.7,0c1.5,0,2.9,0,4.4,0c6.1,0.1,11.1,0.1,14.6-1.9C309.7,71.2,307.6,73,306.3,73.2z"/>
<path class="st2" d="M137.3,116.3l-6.3,23.8l2-0.5c5.2-1.3,8.9-2.9,11.3-4.8c2.4-1.9,4.3-4.8,6-8.7l1.6-0.4l-6.3,23.9l-1.5,0.4
	c0.2-1.2,0.3-2.5,0.4-3.7c0.1-1.3-0.4-2.6-1.4-3.5c-1-0.8-2.3-1.2-3.6-1.2c-1,0-3,0.3-6,1.1l-3.3,0.8l-5.4,20.6
	c-0.4,1.3-0.6,2.6-0.7,4c0,0.6,0.4,1.2,0.9,1.3c0.9,0.3,2.6,0.2,5.1-0.4c4.9-1.3,9.6-3.5,13.7-6.5c4.5-3.4,8.4-7.5,11.5-12.2
	l1.7-0.4l-5.9,17.2l-49.4,12.3l0.5-1.7c2.9-0.7,5-1.8,6.3-3.2c1.3-1.4,2.5-4.1,3.6-8.1l10.6-39.6c0.5-1.7,0.8-3.4,0.9-5.1
	c0.1-0.9-0.4-1.8-1.2-2.2c-0.8-0.4-2.5-0.3-5.2,0.1l0.5-1.7l46-11.5l-3.6,15.3l-1.5,0.4c-0.1-2.8-0.6-4.7-1.4-5.6
	c-1.2-1.5-2.9-2.5-4.8-2.8c-2-0.3-5.2,0-9.6,1.1L137.3,116.3z"/>
<path class="st2" d="M173.2,123.5l30.8-7.7l-8.1,30.7c-0.4,1.3-0.7,2.6-0.9,3.9c0,0.6,0.3,0.9,0.9,0.7c1.1-0.3,2.9-2.6,5.4-7
	l1.5,0.6c-4.1,8-8.4,12.6-12.9,13.8c-1.4,0.5-2.9,0.3-4.1-0.5c-1.1-0.8-1.7-2-1.6-3.4c0-1,0.5-3.3,1.4-6.9l7.1-26.6l-5.2,1.3
	c-1.8,0.4-3.5,1.1-5,2.1c-1.1,0.8-2.1,2.9-3,6.2l-4.5,17.1c-1.7,6.6-3.6,11-5.5,13.2c-1.9,2.2-3.8,3.5-5.6,3.9
	c-1.2,0.3-2.5,0.2-3.6-0.3c-1.1-0.5-1.6-1.6-1.6-3.1c0-1.4,0.5-2.7,1.3-3.7c0.8-1.1,2-1.9,3.3-2.2c1.1-0.3,2.3-0.1,3.2,0.6
	c0.5,0.4,1.2,0.6,1.9,0.6c1.3-0.3,2.6-2.9,3.9-7.8l4.1-15.6c0.6-1.8,0.9-3.7,1.1-5.6c0-2.3-1.5-3.2-4.6-2.7L173.2,123.5z"/>
<path class="st2" d="M230.5,108.1l-5.3,19.5c3.6-6.5,6.3-10.9,7.9-13.3c2.5-3.5,4.5-5.8,6.1-7.1c1.4-1.2,3-2,4.8-2.5
	c1.8-0.5,3.2-0.2,4,0.7c0.8,0.9,1.3,2.1,1.3,3.3c-0.1,2.2-0.5,4.3-1.1,6.4l-1.9,7.3c3.6-6.6,6.3-11,7.9-13.2c2.5-3.5,4.6-6,6.5-7.5
	c1.2-1,2.6-1.7,4.1-2.1c1.3-0.4,2.7-0.2,3.8,0.6c1.1,0.8,1.6,2.2,1.5,3.5c-0.1,2.5-0.5,5-1.2,7.4l-4.6,16.9c-0.5,1.6-0.8,3.2-1,4.8
	c0,0.2,0.1,0.4,0.3,0.6c0.2,0.1,0.4,0.2,0.6,0.1c0.3-0.1,0.6-0.3,0.8-0.5c1.2-1.4,2.3-2.8,3.2-4.4c0.3-0.4,0.6-1,1.1-1.9l1.5,0.6
	c-1.5,3.6-3.7,6.8-6.4,9.6c-2.3,2.3-4.5,3.7-6.5,4.2c-1.7,0.4-3.1,0.3-4.2-0.4c-1-0.6-1.6-1.7-1.6-2.9c0.1-2,0.5-3.9,1-5.8l4.7-17.7
	c0.4-1.5,0.8-3,0.9-4.5c0-0.2-0.1-0.4-0.3-0.5c-0.2-0.1-0.4-0.2-0.6-0.1c-0.4,0.1-0.8,0.3-1.1,0.5c-0.9,0.9-1.8,1.8-2.5,2.9
	c-1.7,2.4-3.3,5-4.8,7.6c-1.6,2.7-3,5.4-4.3,8.2c-0.9,2.4-1.7,4.8-2.4,7.3l-2.5,9.4l-10.8,2.7l7.8-29.6c0.3-1.1,0.5-2.1,0.6-3.2
	c0-0.2-0.1-0.4-0.3-0.5c-0.2-0.1-0.4-0.2-0.6-0.1c-1,0.3-2.7,2-4.9,5.3c-3.7,5.6-6.8,11.5-9.3,17.6l-3.4,13l-10.8,2.7l7.8-29.2
	c0.6-2,1-4,1.2-6c0-0.4-0.1-0.8-0.3-1.1c-0.3-0.3-0.7-0.5-1.1-0.5c-1,0-2,0.2-2.9,0.5l0.4-1.7l14.5-6.1L230.5,108.1z"/>
<path class="st2" d="M275.2,100.7l13.1-7.1c0.9,0.9,1.7,1.9,2.2,3.1c0.9,2.5,1.5,5.2,1.7,7.9c0.6,6.8,1.1,14.1,1.4,21.9
	c3-4.7,6.4-10.9,10.3-18.4c1.1-1.8,1.7-3.9,1.8-6c0-1.1-0.7-2-2.1-2.6c-1-0.4-1.9-0.9-2.6-1.7c-0.4-0.6-0.6-1.3-0.5-2
	c0-1.5,0.6-2.9,1.5-4c0.9-1.2,2.3-2.1,3.8-2.5c2.4-0.7,4.9,0.7,5.6,3.1c0.1,0.5,0.2,0.9,0.2,1.4c-0.1,2.4-0.6,4.8-1.6,7
	c-1,2.8-3.5,7.7-7.4,14.7c-4.5,8.2-9.3,16.1-14.6,23.8c-2.3,3.4-4.8,6.6-7.4,9.7c-1.8,2-3.7,3.7-5.9,5.3c-1.1,0.8-2.3,1.4-3.6,1.7
	c-1.4,0.4-3,0.2-4.2-0.7c-1.1-0.8-1.8-2.2-1.7-3.6c0-1.6,0.5-3.1,1.5-4.3c0.9-1.2,2.2-2.1,3.6-2.5c1.8-0.4,3.6,0.2,4.8,1.5
	c1,1,1.8,1.4,2.4,1.2c0.7-0.2,1.4-0.5,1.9-1c1.3-1.2,2.5-2.6,3.6-4c0.1-3.6,0.2-6.3,0.2-8.1c0-2.4-0.1-5.8-0.4-10.1l-0.8-15.9
	c-0.3-2.9-0.9-4.9-2-5.9c-0.8-0.8-2-1-3.1-0.7c-0.5,0.1-1.1,0.3-1.6,0.5L275.2,100.7z"/>
<path class="st2" d="M315.7,89.2l14.1-5.9l2.6-0.6l-1.9,7.4c2.2-2.7,4.6-5.1,7.3-7.3c1.7-1.3,3.6-2.3,5.6-2.8
	c2.7-0.7,4.7-0.2,6.2,1.5c1.5,1.7,2.2,4,2.2,7c0.1,8.1-2.7,16-8.3,23.6c-5,6.8-10.4,10.9-16.3,12.4c-0.9,0.2-1.8,0.4-2.7,0.4
	c-1.1-0.1-2.1-0.2-3.1-0.5l-2.2,8.2c-0.6,2.2-1,4.4-1.1,6.6c-0.1,0.8,0.3,1.5,0.9,1.9c0.6,0.4,2.1,0.4,4.4,0.2l-0.4,1.7l-22.9,5.7
	l0.4-1.7c1.8-0.5,3.3-1.5,4.5-2.9c1.2-1.4,2.3-4,3.3-8l10.1-38.1c0.6-1.9,1-3.9,1.1-5.9c0-0.4-0.1-0.8-0.3-1.1
	c-0.3-0.3-0.6-0.4-1-0.4c-1,0.1-2.1,0.3-3.1,0.6L315.7,89.2z M322.6,120c0.6,0.9,1.4,1.7,2.3,2.2c0.8,0.3,1.6,0.3,2.4,0.1
	c1-0.3,1.9-0.7,2.7-1.4c1.2-1.1,2.3-2.4,3.2-3.8c1.4-2.1,2.6-4.3,3.6-6.7c1.2-2.8,2.1-5.7,2.8-8.7c0.7-2.9,1-5.8,1-8.8
	c0-2.2-0.4-3.6-1.2-4.4c-0.7-0.8-1.8-1.1-2.9-0.8c-1,0.3-2,0.8-2.8,1.5c-1.7,1.5-3.2,3.3-4.5,5.2L322.6,120z"/>
<path class="st2" d="M215.6,180c-0.5,0.9-1.1,1.8-1.9,2.5c-0.7,0.6-1.5,1-2.3,1.2c-0.9,0.3-1.8,0.2-2.6-0.2c-0.7-0.5-1.2-1.2-1.4-2
	c-0.2-1.1-0.2-2.3,0.2-3.4c0.4-1.2,1.1-2.3,1.9-3.1c0.8-0.8,1.8-1.4,2.9-1.7c0.6-0.2,1.3-0.2,1.9,0c0.4,0.2,0.8,0.6,0.9,1
	c0.1,0.4,0,0.8-0.2,1.2c-0.1,0.3-0.4,0.5-0.7,0.5c-0.2,0.1-0.4,0-0.6-0.1c-0.2-0.1-0.3-0.3-0.3-0.5c0-0.1,0-0.3,0-0.4
	c0.1-0.2,0.1-0.3,0.2-0.5c0.1-0.1,0.2-0.3,0.2-0.4c0-0.1,0-0.2,0-0.2c0-0.1-0.1-0.3-0.3-0.3c-0.3-0.1-0.6-0.1-0.9,0
	c-0.8,0.2-1.5,0.6-2,1.2c-0.6,0.7-1.1,1.6-1.3,2.5c-0.3,1.1-0.4,2.3-0.2,3.5c0.1,0.6,0.5,1.2,1,1.5c0.6,0.3,1.2,0.4,1.9,0.2
	c0.6-0.1,1.1-0.4,1.6-0.8c0.6-0.6,1.1-1.2,1.5-1.9L215.6,180z"/>
<path class="st2" d="M225.1,173.5c0.2,1.1,0.2,2.3-0.2,3.3c-0.3,1.2-1,2.2-1.9,3c-0.8,0.8-1.8,1.4-2.8,1.6c-0.9,0.3-1.9,0.1-2.7-0.3
	c-0.8-0.5-1.3-1.3-1.5-2.1c-0.2-1.1-0.2-2.3,0.2-3.3c0.4-1.2,1-2.2,1.9-3.1c0.8-0.8,1.7-1.3,2.8-1.6c0.9-0.3,1.8-0.1,2.6,0.3
	C224.4,171.9,224.9,172.6,225.1,173.5z M223.1,173.3c-0.1-0.6-0.4-1-0.8-1.4c-0.4-0.3-0.9-0.3-1.4-0.2c-1.1,0.3-1.9,1.2-2.5,2.9
	c-0.6,1.5-0.7,3.2-0.3,4.7c0.1,0.6,0.4,1.1,0.9,1.4c0.4,0.3,1,0.4,1.5,0.2c1-0.3,1.8-1.2,2.4-2.9
	C223.4,176.5,223.5,174.8,223.1,173.3L223.1,173.3z"/>
<path class="st2" d="M231.4,163.4l3.2-1.5l0.4-0.1l-0.5,7.3c0.4-1,1.3-1.7,2.3-2c0.8-0.2,1.6-0.1,2.2,0.4c0.7,0.5,1.2,1.3,1.3,2.2
	c0.3,1.6,0.1,3.4-0.7,4.8c-0.6,1.5-1.9,2.5-3.4,3c-0.8,0.3-1.7,0-2.2-0.7l-0.3,3.6c0,0.4,0,0.8,0,1.1c0,0.3,0.2,0.5,0.5,0.5
	c0.5,0,1,0,1.5-0.2l-0.1,0.4l-5.2,1.3v-0.4c0.5-0.1,0.9-0.3,1.3-0.7c0.3-0.6,0.4-1.2,0.4-1.9l0.2-3.2c-0.5,0.8-1.3,1.5-2.2,1.7
	c-0.8,0.2-1.6,0.1-2.3-0.4c-0.7-0.5-1.1-1.3-1.3-2.1c-0.3-1.6-0.1-3.3,0.7-4.8c0.6-1.5,1.9-2.7,3.5-3.1c0.8-0.3,1.7,0,2.1,0.7
	l0.3-4.5c0-0.3,0-0.7,0-1c-0.1-0.3-0.4-0.5-0.8-0.4c-0.3,0.1-0.6,0.2-0.9,0.3L231.4,163.4z M231.1,169.2c-0.6,0.1-1,0.5-1.4,0.9
	c-0.6,0.9-0.9,1.9-1.1,3c-0.3,1.3-0.4,2.6-0.1,3.9c0.1,0.5,0.3,1,0.7,1.4c0.3,0.2,0.7,0.3,1.1,0.2c1.1-0.3,1.8-1.5,2.1-3.7
	c0.3-1.5,0.3-3.1,0.1-4.7C232.4,169.3,231.9,169,231.1,169.2L231.1,169.2z M236.6,167.8c-0.7,0.2-1.2,0.7-1.5,1.3
	c-0.5,1.1-0.8,2.3-0.8,3.5c-0.1,1.1-0.1,2.2,0,3.3c0.1,0.4,0.3,0.8,0.6,1.1c0.3,0.2,0.7,0.3,1.1,0.2c1.1-0.3,1.8-1.3,2.2-3.3
	c0.4-1.5,0.5-3.1,0.2-4.6C238.2,168,237.6,167.6,236.6,167.8L236.6,167.8z"/>
<path class="st2" d="M244.3,165.3l-0.3,5.1c0.3-1,0.6-2,1.1-2.9c0.4-0.9,0.9-1.7,1.6-2.4c0.3-0.3,0.7-0.5,1.1-0.6
	c0.3-0.1,0.7-0.1,1,0.1c0.3,0.2,0.5,0.4,0.6,0.8c0.1,0.5,0.1,0.9,0.1,1.4l-0.2,2.9c0.5-1.9,1.3-3.7,2.4-5.3c0.4-0.5,1-0.9,1.6-1.1
	c0.3-0.1,0.6,0,0.9,0.1c0.3,0.2,0.5,0.6,0.6,0.9c0.1,0.4,0.1,0.9,0.1,1.3l-0.3,4.4c-0.1,0.5-0.1,1.1-0.1,1.6c0,0.1,0.1,0.2,0.2,0.2
	c0.1,0,0.1,0,0.2,0c0.1-0.1,0.3-0.2,0.3-0.3c0.4-0.5,0.7-1,0.9-1.5l0.4,0.1c-0.2,0.5-0.5,1-0.7,1.4c-0.3,0.5-0.6,0.9-1,1.3
	c-0.2,0.2-0.5,0.4-0.9,0.5c-0.2,0.1-0.5,0-0.7-0.1c-0.2-0.1-0.4-0.3-0.4-0.6c-0.1-0.7-0.1-1.4,0-2.1l0.2-3.6c0-0.8,0.1-1.3,0.1-1.4
	c0-0.1,0-0.3-0.1-0.4c0-0.1-0.1-0.3-0.2-0.4c-0.1-0.1-0.2-0.1-0.3-0.1c-0.4,0.1-0.7,0.4-0.9,0.7c-0.9,1.3-1.6,2.8-2,4.4
	c-0.4,1.5-0.6,3-0.7,4.5l-1.7,0.4l0.4-6.8c0.1-0.5,0.1-1,0-1.5c0-0.2-0.1-0.3-0.2-0.4c-0.1-0.1-0.2-0.1-0.3-0.1
	c-0.3,0.1-0.5,0.2-0.7,0.4c-0.5,0.7-1,1.4-1.3,2.2c-0.4,0.9-0.8,1.9-1,2.9c-0.1,0.4-0.2,1.8-0.5,4l-1.6,0.4l0.5-7.3l0.1-0.9
	c0-0.1,0-0.2,0-0.3c0-0.2-0.2-0.3-0.3-0.4c-0.2-0.1-0.4-0.1-0.6,0c-0.3,0.1-0.5,0.2-0.7,0.3l-0.2-0.4L244.3,165.3z"/>
<path class="st2" d="M257.9,162c0.3,0.3,0.6,0.6,0.8,1c0.3,0.7,0.5,1.3,0.7,2l1.7,5.1c0.3-0.6,0.8-1.6,1.4-2.9
	c0.3-0.6,0.6-1.5,1-2.5c0.2-0.4,0.3-0.9,0.4-1.3c0-0.1,0-0.2,0-0.4c0-0.1-0.1-0.1-0.1-0.2c-0.1-0.1-0.3-0.1-0.4-0.1
	c-0.2,0-0.4-0.1-0.6-0.2c-0.2-0.1-0.3-0.3-0.4-0.6c-0.1-0.2,0-0.5,0.1-0.7c0.1-0.2,0.3-0.4,0.6-0.4c0.3-0.1,0.7,0,0.9,0.2
	c0.3,0.2,0.5,0.6,0.6,1c0.1,0.7,0.1,1.4-0.2,2c-0.4,1.3-0.9,2.6-1.5,3.8c-0.8,1.7-1.8,3.7-3,5.8c-0.5,1-1.2,2-1.9,2.9
	c-0.3,0.4-0.8,0.6-1.3,0.8c-0.2,0.1-0.5,0-0.7-0.1c-0.2-0.1-0.3-0.3-0.4-0.5c-0.1-0.3,0-0.6,0.2-0.8c0.2-0.3,0.4-0.5,0.7-0.5
	c0.1,0,0.3,0,0.4,0c0.1,0.1,0.2,0.1,0.3,0.2c0.1,0.1,0.2,0.2,0.3,0.3c0,0,0.1,0,0.1,0c0.1,0,0.2-0.1,0.2-0.2
	c0.4-0.4,0.8-0.9,1.1-1.5c0.4-0.7,0.8-1.4,1.2-2.1l-2.1-6.5c-0.2-0.7-0.5-1.3-0.9-1.9c-0.3-0.2-0.7-0.2-1.1-0.1
	c-0.2,0-0.4,0.1-0.8,0.3l-0.2-0.4L257.9,162z"/>
<path class="st2" d="M267.5,165.5c0,0.3,0.1,0.6,0.1,0.9c0.1,0.6,0.5,1.1,1.1,1.4c0.6,0.3,1.2,0.4,1.8,0.2c0.5-0.1,1-0.4,1.5-0.7
	c0.7-0.6,1.3-1.2,1.9-1.9l0.3,0.2c-1.4,2.1-2.8,3.3-4.4,3.7c-0.9,0.3-1.9,0.2-2.6-0.4c-0.7-0.5-1.1-1.2-1.3-1.9
	c-0.2-1.2-0.1-2.4,0.3-3.5c0.4-1.2,1.1-2.3,1.9-3.2c0.8-0.8,1.8-1.4,2.9-1.7c0.6-0.2,1.2-0.2,1.8,0c0.4,0.2,0.7,0.5,0.8,0.9
	c0.1,0.6,0,1.3-0.3,1.8c-0.6,1-1.4,1.8-2.4,2.4C269.8,164.5,268.7,165.1,267.5,165.5z M267.5,164.9c0.9-0.3,1.7-0.7,2.5-1.3
	c0.7-0.5,1.3-1.1,1.7-1.9c0.3-0.5,0.4-1.1,0.3-1.7c-0.1-0.3-0.2-0.5-0.5-0.6c-0.3-0.1-0.6-0.2-0.9-0.1c-0.9,0.3-1.6,0.9-2.1,1.7
	C267.9,162.3,267.5,163.6,267.5,164.9z"/>
<path class="st2" d="M277.8,157.1l-0.2,2.6c0.4-0.9,1-1.7,1.7-2.4c0.5-0.5,1.1-0.8,1.8-1c0.6-0.2,1.3,0,1.8,0.3c0.6,0.4,1,1,1.1,1.8
	c0.3,1.8,0,3.6-0.9,5.2c-0.7,1.7-2.2,3-4,3.5c-0.3,0.1-0.7,0.1-1,0.1c-0.4,0-0.7-0.1-1-0.2l-0.2,2.9c0,0.4,0,0.7,0,1.1
	c0,0.1,0.1,0.3,0.2,0.4c0.1,0.1,0.3,0.1,0.5,0.1c0.4,0,0.8-0.1,1.1-0.2v0.4l-5.1,1.3v-0.4c0.5-0.1,0.9-0.3,1.3-0.7
	c0.3-0.6,0.4-1.2,0.4-1.8l0.7-9.9c0-0.4,0-0.8,0-1.1c0-0.2-0.1-0.3-0.3-0.4c-0.2-0.1-0.4-0.1-0.6,0c-0.3,0.1-0.6,0.2-0.9,0.3
	l-0.1-0.4L277.8,157.1z M277.2,166.1c0.6,0.4,1.3,0.5,2,0.3c0.4-0.1,0.8-0.3,1.1-0.6c0.4-0.3,0.7-0.7,0.9-1.2
	c0.3-0.5,0.6-1.1,0.7-1.6c0.2-0.7,0.3-1.4,0.4-2c0.1-0.7,0-1.5-0.1-2.2c-0.1-0.5-0.3-0.9-0.7-1.2c-0.3-0.2-0.7-0.3-1-0.2
	c-0.9,0.3-1.7,1-2,1.9c-0.6,1.1-0.9,2.3-1,3.5L277.2,166.1z"/>
</svg>
