<?xml version="1.0" encoding="utf-8"?>
<!-- Generator: Adobe Illustrator 16.0.0, SVG Export Plug-In . SVG Version: 6.00 Build 0)  -->
<!DOCTYPE svg PUBLIC "-//W3C//DTD SVG 1.1//EN" "http://www.w3.org/Graphics/SVG/1.1/DTD/svg11.dtd">
<svg version="1.1" id="Layer_1" xmlns="http://www.w3.org/2000/svg" xmlns:xlink="http://www.w3.org/1999/xlink" x="0px" y="0px"
	 width="3280px" height="1992px" viewBox="0 0 3280 1992" enable-background="new 0 0 3280 1992" xml:space="preserve">
<path fill="#FFFFFF" d="M8149.874,900.375c-23.783,16.831-41.744,34.728-18.95,60.027c34.516,45.31,68.683,108.981,186.396,127.985
	c87.794,4.547,185.594-10.708,282.741-82.186c104.532-94.13,193.735-227.946,232.171-410.533
	c14.117-109.521,96.245-429.725,259.04-368.175c0,0,39.77-19.35,5.489-49.393c-40.517-31.673-118.155-75.562-247.252,30.57
	c-65.824,97.905-96.197,212.362-115.217,284.181c-35.252,140.803-81.402,279.425-180.062,407.519
	C8419.448,1025.806,8284.661,1083.676,8149.874,900.375 M8534.221,450.784c27.061,12.14-56.137,200.105-105.982,245.512
	c-81.721,80.514-145.525,18.209-109.148-38.012C8337,604.911,8502.561,436.955,8534.221,450.784z M5554.956-177.233
	c94.62-70.543,181.162-145.914,404.707-139.123c103.281,8.464,185.755,25.951,268.476,78.674
	C6383.276,2.485,5744.271-9.298,5554.956-177.233z M7101.616,609.794c-10.016,55.615,66.091,117.951,125.316,74.51
	c30.485-27.094,60.97-54.191,91.45-81.289c-47.142,49.094-61.18,85.727-52.848,115.598c19.012,69.778,86.54,109.987,164.616,107.944
	c85.216,15.243,224.534-74.566,309.423-149.553c45.042-46.23,130.086-201.154,196.148-226.652
	c40.808,8.835-29.215,40.635-74.246,240.044c0.204,32.163-14.626,94.776,74.159,115.059c34.603,9.121,122.868,46.738,243.781-57.23
	c47.821,99.573,253.569,78.258,334.037-41.429c28.003-28.757,160.144-245.595,107.341-344.683
	c-32.851-87.207-220.567-471.987-477.22-615.839c-24.699-4.931-57.066-13.231-45.288,29.262
	c3.364,56.206,393.075,426.94,408.688,608.847c-62.169,3.507-180.894,90.846-255.44,165.844
	c-76.188,71.255-51.362,145.956-138.9,174.112c-161.828,76.638-137.174-118.142-43.298-250.608
	c44.69-50.809,133.035-146.488,53.345-178.225c-86.423-22.579-149.203,27.944-177.701,61.002
	c46.609-137.937-95.139-101.063-125.319-41.4c-76.34,137.746-144.628,275.487-294.673,413.223
	c-64.874,51.328-85.237,45.714-121.93,6.775c-22.65-32.422-20.263-82,37.259-169.353c40.542-64.223,83.131-133.453,128.702-209.999
	c52.272-102.272-56.381-139.861-142.777-90.613C7182.135,399.244,7110.247,546.045,7101.616,609.794z M7243.872,596.245
	c14.216,7.207,213.839-217.373,182.901-240.484C7395.32,335.477,7217.164,579.528,7243.872,596.245z M7025.253,15.83
	c-87.84,312.102-204.27,486.568-78.981,792.932c31.671,63.349,85.09,116.805,186.385,148.481
	c45.569,11.45,96.81,6.614,132.826-10.216c41.659-18.426,28.579-67.727-5.688-56.055c-42.12,20.081-73.437,17.91-123.979-12.71
	c-68.772-44.195-137.489-122.04-129.522-262.203c2.102-202.421,58.331-404.48,129.522-606.549
	c12.668-90.097-92.868-105.517-117.53-77.7C7028.661-48.301,7029.479-5.498,7025.253,15.83z M7286.135,1219.021
	c17.664-10.301,68.952-47.122,31.646-80.786c20.073-11.262,39.484-5.611,58.53,9.504c13.175,7.927,49.518-17.339,49.522-33.846
	c1.057-12.562-6.563-21.285-16.312-29.517c5.274-8.443,10.542-16.889,15.816-25.342c-1.056,17.423,7.377,27.462,25.313,30.093
	c71.567-22.542,13.583-126.169-50.621-80.783c-69.69-80.775-137.675,19.951-176.669,52.169
	c-12.913,22.974,10.836,50.793,35.882,50.793c-10.01,19.538-28.738,43.83-38.753,63.365
	C7239.476,1191.043,7267.152,1202.657,7286.135,1219.021z M6506.286,561.661c-11.074-26.137,181.909-145.731,199.313-137.81
	C6723.449,448.796,6529.27,572.541,6506.286,561.661z M7598.56-399.825c52.661,12.183,113.685-64.863,32.428-101.372
	c-157.06-59.594-216.118-47.411-467.327,151.165c-96.188,74.82-207.178,189.813-290.391,296.303
	c-180.006,259.247-418.934,482.852-601.104,753.196c-97.54,109.294,88.059,64.94,112.313,41.186
	c18.455-32.21,36.911-64.418,55.364-96.621c190.011,293.696,521.955,503.997,790.928,670.031
	c65.911,30.625,131.82,61.254,197.731,91.873c152.917,57.023,391.246,7.922,444.509-19.003
	c135.179-41.271,206.8-105.4,264.479-201.551c35.13-66.811-71.406-90.465-89.515-30.514
	c-27.774,181.87-410.891,238.862-548.287,194.047c-158.021-68.659-365.465-197.909-558.396-329.472
	c-171.229-127.193-278.263-249.827-407.328-389.669c-64.644-52.003,121.077-48.554,187.446-99.79
	c37.705-20.332,50.878-41.453,64.064-76.032c40.339-84.547-11.688-116.93-43.414-102.965c-77.221,33.42-80.659,0.479-59.184-21.457
	c201.477-250.057,352.229-515.058,571.626-681.831c65.649-44.883,143.952-83.424,196.942-89.494
	C7508.661-449.192,7559.544-416.192,7598.56-399.825z M4916.201,1119.423c-20.274,81.329,134.773,108.638,145.644,3.388
	c29.591-228.825,9.645-276.998,138.868-632.495c130.113-325.875,273.494-631.296,319.386-613.394
	c160.1,110.278,343.873,166.712,588.343,179.848c236.771,7.355,319.038-168.244,216.769-308.227
	c-114.947-138.058-327.023-174.475-560.218-156.074c-157.832,11.227-355.114,186.186-473.516,419.125
	C5082.854,380.008,4964.75,717.319,4916.201,1119.423z M5353.13,564.834c-10.016,55.618,66.089,117.954,125.319,74.513
	c30.48-27.095,60.965-54.189,91.45-81.289c-47.141,49.094-61.182,85.733-52.85,115.601
	c19.014,69.773,86.542,109.979,164.623,107.944c80.037-22.69,142.545-65.451,193.063-121.935
	c22.788,15.6,141.03,43.891,162.233-14.949c31.912-125.571,69.521-165.899,115.501-249.242
	c37.649-12.847,98.27-43.112,169.351-81.289c86.68-33.937,151.066-40.418,182.901-6.773c23.935,14.739,76.34-6.945,81.289-50.81
	c-3.807-44.756-55.058-70.498-133.21-78.825c-144.159,17.024-182.725,69.04-256.301,133.773
	c-1.021-14.197-1.818-33.867-9.949-36.064c-35.217-9.534-82.927-6.262-115.37-5.336c-76.337,137.743-144.63,275.489-294.673,413.222
	c-64.877,51.328-85.24,45.714-121.935,6.773c-22.65-32.419-20.258-82,37.255-169.351c40.548-64.228,83.139-133.453,128.708-210.001
	c52.275-102.272-56.378-139.858-142.775-90.613C5433.648,354.285,5361.761,501.083,5353.13,564.834z M5495.383,551.283
	c14.219,7.207,213.843-217.373,182.899-240.484C5646.834,290.514,5468.675,534.571,5495.383,551.283z"/>
<g>
	<g>
		<path fill="#452119" d="M1933.185,671.546c-20.372,3.221-36.996,14.308-52.928,26.271
			c-79.055,59.346-132.94,137.449-169.223,228.505c-3.558,8.942-4.896,18.349-4.136,28.002c1.085,13.748,9.583,22.775,23.296,24.721
			c9.42,1.337,18.426-0.48,26.946-4.208c22.895-10.033,40.729-27.023,58.6-43.78c22.14-20.759,41.363-44.202,60.882-67.351
			c0.31-1.825,1.275-3.108,3.157-3.819c0.719,2.952-1.064,4.791-2.72,6.68c-1.424,3.143-2.784,6.314-4.284,9.421
			c-14.432,29.892-28.384,60.016-33.09,93.276c-3.193,22.514-2.256,44.662,13.825,62.946c17.926,20.373,41.137,27.862,67.675,25.467
			c21.407-1.931,40.545-10.401,58.69-21.563c43.646-26.839,80.732-61.319,115.274-98.771c0.535-2.044,2.008-3.312,4.151-4.799
			c0.71,2.325-0.311,3.565-1.868,4.637c-5.877,10.57-12.007,21.013-17.539,31.767c-2.945,5.729-7.716,12.614-2.029,18.329
			c5.095,5.108,12.064,1.232,17.834-1.015c14.854-5.779,26.862-14.926,36.037-28.414c37.185-54.617,75.461-108.417,120.546-157.01
			c26.979-29.082,56.314-55.383,89.293-77.529c4.016-2.696,8.378-5.019,12.563-1.237c4.144,3.738,0.198,7.516-1.416,10.88
			c-10.083,21.062-20.555,41.941-30.546,63.045c-19.238,40.616-39.045,81.007-52.856,123.942
			c-4.073,12.655-6.694,25.663-7.392,38.925c-2.107,40.285,21.337,67.183,62.222,70.113c57.964,4.165,110.623-11.337,157.878-45.126
			c8.787-6.285,8.646-6.447,13.902,3.319c4.411,8.181,11.027,13.967,19.47,17.701c8.843,3.917,18.173,5.249,27.791,5.413
			c41.977,0.698,80.176-12.593,115.684-33.353c66.893-39.094,100.949-98.088,102.887-175.607
			c1.036-41.695-9.125-81.053-24.529-119.358c-31.829-79.158-75.102-151.842-125.724-220.222
			c-55.182-74.545-114.38-145.613-183.88-207.521c-4.939-4.4-9.576-8.53-16.687-4.038c-7.942,5.021-10.71,11.652-7.942,20.661
			c3.298,10.713,10.042,19.403,17.06,27.833c34.888,41.889,70.093,83.512,104.719,125.605
			c57.943,70.42,114.084,142.186,161.358,220.43c15.968,26.425,30.653,53.529,43.442,81.638c5.623,12.356,4.63,14.477-7.687,19.103
			c-8.618,3.238-17.222,6.557-25.699,10.161c-67.626,28.781-127.62,68.108-173.317,126.792
			c-14.635,18.793-28.087,39.157-30.498,63.102c-1.662,16.503-8.547,26.34-22.07,33.423c-0.253,0.134-0.464,0.338-0.705,0.5
			c-28.51,18.829-59.325,30.878-93.944,30.398c-27.566-0.379-46.183-15.001-51.785-39.693c-2.967-13.071-2.734-26.297-1.296-39.573
			c5.277-48.748,23.937-92.903,46.401-135.752c15.932-30.407,33.578-59.84,50.807-89.516c6.439-11.095,5.305-20.407-2.834-29.352
			c-6.906-7.586-15.487-8.963-26.854-4.285c-14.833,6.109-27.777,15.309-40.136,25.269
			c-55.816,44.992-107.425,94.396-154.693,148.323c-0.606,2.001-1.896,3.418-4.207,4.637c-0.711-2.882,0.818-4.608,2.445-6.3
			c23.57-51.341,48.248-102.153,74.264-152.304c3.199-6.166,6.321-12.338,7.258-19.296c0.578-4.306-0.493-8.09-5.954-6.567
			c-23.775,6.634-46.19,15.333-57.549,39.967c-11.106,24.083-21.696,48.424-33.625,72.086
			c-18.758,37.188-32.985,76.727-57.564,110.93c-29.955,41.667-63.116,80.289-104.219,111.484
			c-17.489,13.275-35.458,26.085-56.407,33.224c-35.289,12.015-61.319-5.433-64.116-42.188
			c-1.917-25.142,3.558-49.283,10.139-73.228c23.211-84.446,61.426-161.993,108.524-235.436c2.022-3.15,4.186-6.261,5.757-9.636
			c1.191-2.565,2.148-5.913-0.416-8.062c-2.438-2.037-5.496-0.965-8.061,0.578c-7.187,4.305-14.143,8.995-20.125,14.878
			c-2.853,2.809-4.672,3.703-8.562,1.033C1967.789,670.711,1950.863,668.756,1933.185,671.546z M2546.169,954.472
			c4.122-24.07,16.172-44.844,28.969-65.089c30.039-47.507,65.229-90.132,114.999-118.515c11.014-6.283,22.176-12.389,34.521-15.661
			c11.401-3.03,15.559,0.102,16.616,11.588c3.311,36.007-5.483,69.811-19.639,102.322c-20.907,48.016-51.066,88.152-99.363,112.042
			c-13.79,6.82-27.94,12.33-43.689,12.069C2551.455,994.828,2542.871,973.752,2546.169,954.472z M1947.276,723.92
			c-16.771,37.23-38.214,71.667-62.433,104.447c-24.169,32.718-48.345,65.414-78.152,93.396
			c-8.414,7.899-17.053,15.544-26.784,21.816c-3.467,2.233-7.237,4.003-11.373,2.022c-4.531-2.171-4.13-6.539-3.981-10.569
			c0.494-13.149,4.792-25.396,9.238-37.566c22.71-62.256,54.033-119.657,96.572-170.695c9.119-10.951,19.182-20.717,33.168-25.428
			c4.193-1.409,8.42-1.79,12.733-1.963c12.951-0.658,22.401,6.039,31.188,14.445C1951.328,717.529,1948.757,720.629,1947.276,723.92
			z"/>
		<path fill="#452119" d="M2450.012,1277.95c-11.732-2.748-15.509-1.324-20.773,8.238c-4.488,8.167-6.497,17.208-8.885,26.106
			c-6.342,23.669-14.797,46.148-34.048,62.876c-15.101,13.129-31.492,24.29-49.284,33.429
			c-54.181,27.834-111.963,41.646-172.563,45.049c-38.967,2.191-77.977,1.805-116.684-1.754
			c-46.627-4.298-91.542-17.573-135.767-32.759c-6.947-2.391-14.254-4.017-21.188-8.322c4.982-1.148,9.182-1.918,13.263-3.094
			c14.494-4.157,14.444-4.2,8.92-18.512c-1.332-3.452-2.165-6.109-7.167-3.784c-7.272,3.383-15.291,2.636-23.007,1.416
			c-19.483-3.07-35.409-14.932-53.293-21.991c-5.024-1.987-1.973-5.152-0.782-7.725c8.209-17.798,16.412-35.604,24.902-53.271
			c2.27-4.714,2.572-8.964,1.36-14.078c-2.614-11-6.497-21.774-7.794-34.551c19.886,10.281,39.7,17.469,57.789,28.279
			c3.22,1.923,6.188,4.84,10.133,2.015c5.08-3.644,7.201-8.829,6.926-15.009c-0.225-5.145-4.171-6.047-8.082-7.541
			c-8.279-3.17-16.348-6.891-25.254-10.71c3.072-2.917,5.37-5.024,7.589-7.216c12.515-12.367,15.798-33.111,7.561-46.049
			c-6.927-10.887-23.401-15.023-41.32-6.589c-18.504,8.711-37.538,16.305-56.373,24.304c-8.52,3.614-19.836-2.438-21.929-11.464
			c-0.697-3.017-5.123-4.546-5.588-3.377c-3.502,8.746-10.577,2.102-15.559,4.116c0.733,3.298,4.939,3.629,5.765,5.947
			c2.396,6.778,3.009,14.375,12.521,5.017c2.529-2.495,18.208,9.197,19.667,13.932c6.539,21.189,13,42.398,19.554,63.58
			c1.149,3.715,1.388,7.139-0.401,10.852c-6.49,13.503-13.001,27.011-18.928,40.757c-2.276,5.272-4.438,5.088-9.02,2.904
			c-25.22-12.051-50.636-23.677-75.912-35.62c-4.228-2.001-7.589-3.058-9.132,2.726c-1.628,6.104-4.517,5.393-9.231,2.686
			c-59.727-34.252-115.119-74.735-169.208-117.113c-86.557-67.815-170.896-138.28-252.521-211.966
			c-17.983-16.235-35.37-33.14-52.813-49.96c-7.793-7.519-7.509-9.302,1.5-14.692c7.913-4.735,15.946-9.308,24.152-13.507
			c29.757-15.257,59.473-30.589,89.456-45.381c36.867-18.194,57.866-49.212,70.864-86.648c5.953-17.158-2.041-27.502-20.167-27.862
			c-10.603-0.211-20.626,2.343-30.267,6.282c-35.676,14.579-66.842,36.142-95.145,62.065c-2.918,2.671-5.261,6.589-11.042,6.025
			c2.42-4.573,4.294-8.456,6.461-12.156c41.075-70.19,83.918-139.313,126.123-208.823
			c75.32-124.048,156.328-243.864,258.122-348.248c34.323-35.194,70.218-68.883,113.914-92.26
			c69.036-36.931,139.593-42.293,211.023-6.141c5.285,2.674,9.019,1.856,10.738-3.929c3.481-11.676,3.03-22.841-5.749-32.339
			c-19.688-21.323-45.62-26.813-72.981-28.19c-53.336-2.688-100.414,15.259-143.108,45.493
			c-53.435,37.836-100.639,82.892-145.293,130.516c-112.382,119.847-212.534,249.236-301.42,387.447
			c-67.547,105.036-134.225,210.607-199.973,316.777c-15.488,25.017-30.804,50.13-45.947,75.356
			c-2.61,4.341-5.817,10.118-1.868,14.479c4.083,4.518,10.104,2.432,15.299,0.169c19.518-8.469,35.584-20.724,46.891-39.312
			c18.285-30.061,37.068-59.812,53.558-90.929c1.173-2.213,2.022-5.157,5.375-4.749c3.249,0.396,3.611,3.114,4.189,5.742
			c1.463,6.674,5.062,12.191,9.728,17.062c17.765,18.532,35.17,37.431,53.375,55.526c69.433,69.007,143.105,133.235,219.298,194.681
			c131.87,106.326,276.331,189.848,437.485,243.402c44.942,14.931,90.885,25.902,138.175,30.024
			c49.093,4.276,97.983,1.579,146.513-6.813c70.768-12.241,136.864-36.063,195.534-78.633c26.833-19.477,50.2-42.37,70.762-68.203
			c5.96-7.498,10.654-15.875,10.118-26.044C2468.664,1286.659,2462.422,1280.86,2450.012,1277.95z M1200.403,914.899
			c-3.607-4.729,2.033-8.887,4.851-12.635c32.429-43.125,69.265-81.655,115.726-110.018c5.637-3.438,11.859-5.934,17.455-9.439
			c12.113-7.592,20.864,2.875,20.463,13.322c-1.667,15.741-9.07,28.897-18.565,41.116c-12.645,16.271-29.373,27.292-47.088,37.213
			c-25.614,14.354-51.602,27.94-78.642,39.404C1210.088,915.78,1204.215,919.896,1200.403,914.899z"/>
		<path fill="#452119" d="M431.211,425.009c98.431,54.752,202.254,93.37,314.907,105.896c53.929,5.992,107.633,6.271,160.771-6.058
			c30.317-7.035,58.729-18.504,82.814-39.179c33.608-28.852,40.281-67.249,17.902-105.434c-8.235-14.05-18.381-26.731-30.139-37.791
			c-70.923-66.688-154.393-107.15-251.597-116.982c-72.106-7.293-139.885,8.135-202.895,43.808
			c-65.812,37.261-116.687,90.195-156.025,154.002c-56.909,92.31-96.542,192.452-130.125,295.17
			c-30.202,92.394-52.63,186.711-70.444,282.186c-8.664,46.43-16.405,93.014-22.885,139.79
			c-6.092,43.962-11.109,88.053-14.706,132.305c-3.319,40.863-5.134,81.754-4.542,122.743c0.084,5.766,2.544,9.738,7.461,12.691
			c19.157,11.499,46.121,2.89,54.797-17.66c5.741-13.598,6.963-27.975,6.104-42.426c-1.983-33.394-4.799-66.745-4.238-100.251
			c-0.465-32.055,1.364-64.03,3.995-95.938c4.574-55.456,12.99-110.406,21.796-165.333c13.951-87.019,36.567-171.689,65.786-254.744
			c35.81-101.776,78.326-200.742,124.208-298.315C409.585,421.954,419.863,418.695,431.211,425.009z M436.116,383.593
			c21.652-25.759,48.597-45.045,77.78-61.068c77.478-42.54,160.256-63.644,248.93-58.778c57.549,3.16,108.341,25.068,154.895,57.942
			c11.792,8.33,23.003,17.35,33.009,27.831c26.086,27.32,24.448,58.423-4.633,82.445c-21.234,17.539-46.859,25.745-72.863,32.28
			c-58.932,14.812-118.938,21.422-185.844,21.337c-50.821,3.364-103.609-14.047-156.124-32.692
			c-25.545-9.068-50.257-20.082-74.345-32.53c-7.758-4.009-15-8.554-20.623-15.372C429.63,396.9,429.32,391.679,436.116,383.593z"/>
		<path fill="#452119" d="M1180.045,702.03c7.273,2.643,14.862,4.644,22.465,6.077c5.701,1.071,11.581,0.793,14.999-5.557
			c6.176-11.481,6.871-22.915,0.662-34.675c-10.11-19.17-34.446-29.676-60.363-26.295c-22.08,2.886-42.597,10.292-61.618,21.478
			c-56.584,33.277-106.692,74.672-151.564,122.487c-8.798,9.373-17.437,18.906-26.146,28.363c0.278-4.693,1.98-8.28,3.618-11.895
			c10.232-22.563,20.548-45.091,30.621-67.725c4.668-10.496,0.698-15.939-10.897-15.636c-5.934,0.155-11.187,2.293-16.314,5.102
			c-13.416,7.353-20.173,19.736-26.738,32.889c-27,54.101-50.508,110.043-88.358,158.283c-21.74,27.721-42.831,55.858-68.226,80.367
			c-26.066,25.156-54.196,47.655-87.44,62.763c-34.099,15.502-63.505,0.479-69.349-35.093c-0.836-5.081-0.737-10.358-0.667-15.543
			c0.394-29.455,8.364-57.444,17.116-85.208c21.146-67.083,48.152-131.509,87.401-190.277c2.852-4.268,3.146-7.311-0.663-11.26
			c-22.867-23.695-54.771-30.029-84.963-16.447c-22.084,9.928-40.962,24.684-59.042,40.405
			c-51.409,44.675-91.154,98.447-122.015,158.893c-10.208,19.997-20.474,40.158-25.462,62.248
			c-6.449,28.575,11.32,45.727,39.785,39.109c17.777-4.129,31.533-15.179,45.182-26.284c31.046-25.269,57.053-55.393,82.3-86.222
			c1.652-2.269,3.308-4.545,6.019-8.266c0.089,5.399-2.366,7.639-4.121,10.176c-1.221,2.607-2.427,5.214-3.663,7.814
			c-15.009,31.512-29.354,63.187-34.13,98.32c-5.809,42.73,17.07,75.814,58.898,83.262c18.251,3.255,36.177,0.508,53.413-6.313
			c25.772-10.196,47.899-26.34,69.582-43.125c27.429-21.239,51.859-45.691,75.436-71.037c0.458-1.318,1.775-3.213,2.525-2.53
			c2.146,1.958,0.811,4.214-0.687,6.159c-2.459,15.855,7.037,27.341,14.559,39.49c4.069,6.574,10.643,7.469,16.707,2.634
			c2.989-2.381,4.855-5.65,6.729-8.921c19.664-34.246,38.593-68.944,59.22-102.605c27.418-44.751,55.482-89.18,94.29-125.505
			c25.604-23.962,52.568-45.968,84.46-61.143C1101.248,692.879,1139.862,687.429,1180.045,702.03z M495.844,948.912
			c-7.58,7.075-15.645,13.678-23.896,19.956c-3.953,3.009-8.568,6.802-14.139,3.622c-5.084-2.896-2.818-8.23-3.41-13.297
			c1.681-19.505,9.622-37.84,17.127-56.188c23.295-56.943,53.374-109.863,94.448-156.071c6.179-6.952,13.367-12.68,21.901-16.605
			c17.584-8.083,34.587-4.597,48.244,9.256c4.163,4.224,2.368,7.571,0.539,11.588c-16.317,35.832-36.751,69.182-60.036,100.885
			C551.681,886.015,526.809,920.022,495.844,948.912z"/>
		<path fill="#452119" d="M3142.87,599.45c-35.352-19.565-72.607-21.722-109.065-5.892
			c-59.431,25.805-101.33,68.197-119.819,132.391c-20.322,70.553-37.77,141.879-58.642,212.273
			c-18.321,61.806-41.997,120.99-83.888,171.069c-49.235,58.854-109.483,94.184-189.32,84.143
			c-41.003-5.159-77.004-20.076-99.342-57.71c-4.607-7.76-9.174-3.017-13.699-0.741c-4.778,2.403-6.729,5.566-2.854,10.936
			c9.344,12.96,19.808,24.699,32.816,34.134c33.999,24.634,73.101,31.081,108.953,32.287c58.726,0.041,111.589-17.737,158.393-52.32
			c67.012-49.517,111.928-115.443,141.22-192.583c31.047-81.768,52.399-166.305,70.458-251.727
			c5.977-28.235,16.772-54.164,37.487-74.581c26.319-25.932,66.351-44.763,106.643-20.03c3.946,2.417,8.639,3.203,13.36,2.953
			c7.653-0.402,17.532,1.088,19.929-7.996C3157.696,607.747,3149.41,603.065,3142.87,599.45z"/>
		<path fill="#452119" d="M1569.656,612.557c-12.462,72.368-25.019,144.725-30.867,218.031
			c-5.205,65.25,5.862,127.599,35.331,186.127c31.499,62.572,79.986,104.952,149.499,120.58
			c34.564,7.766,67.591,3.989,97.948-15.628c4.2-2.713,7.984-6.533,5.066-11.219c-3.023-4.848-7.47-0.79-10.352,1.408
			c-21.773,16.638-46.852,19.161-72.459,15.27c-70.564-10.716-117.555-50.854-142.2-117.45
			c-19.258-52.054-21.732-105.967-15.093-160.31c10.756-88.047,28.14-175.079,41.934-262.667
			c4.255-27.009,9.209-53.976,9.709-81.443c0.142-9.263-0.338-18.477-2.283-27.535c-4.819-22.433-15.643-40.158-38.453-48.279
			c-3.312-1.181-6.719-2.148-9.686,0.824c-2.935,2.935-0.905,5.954,0.074,8.847c6.223,18.451,7.614,37.625,4.07,56.39
			C1584.521,534.523,1576.396,573.409,1569.656,612.557z"/>
		<path fill="#452119" d="M1958.17,1189.91c0,12.388-10.042,22.431-22.429,22.431c-12.388,0-22.43-10.043-22.43-22.431
			c0-12.385,10.042-22.428,22.43-22.428C1948.128,1167.481,1958.17,1177.524,1958.17,1189.91z"/>
	</g>
	<g>
		<polygon fill="#452119" points="985.55,1533.272 1028.442,1672.083 1167.249,1672.083 1054.954,1757.873 1097.844,1896.679 
			985.55,1810.894 873.251,1896.679 916.147,1757.873 803.846,1672.083 942.655,1672.083 		"/>
		<polygon fill="#452119" points="1861.666,1534.936 1904.559,1673.747 2043.364,1673.747 1931.065,1759.537 1973.964,1898.345 
			1861.666,1812.554 1749.367,1898.345 1792.259,1759.537 1679.964,1673.747 1818.773,1673.747 		"/>
		<polygon fill="#452119" points="1418.338,1533.272 1461.231,1672.083 1600.037,1672.083 1487.74,1757.873 1530.637,1896.679 
			1418.338,1810.894 1306.042,1896.679 1348.931,1757.873 1236.636,1672.083 1375.445,1672.083 		"/>
		<polygon fill="#452119" points="2294.452,1534.936 2337.348,1673.747 2476.153,1673.747 2363.854,1759.537 2406.749,1898.345 
			2294.452,1812.554 2182.157,1898.345 2225.048,1759.537 2112.75,1673.747 2251.558,1673.747 		"/>
	</g>
</g>
</svg>
